<svg xmlns="http://www.w3.org/2000/svg" xmlns:xlink="http://www.w3.org/1999/xlink" viewBox="0 0 500 500" xmlns:v="https://vecta.io/nano"><style><![CDATA[.B{fill:#407bff}.C{fill:#263238}.D{opacity:.2}.E{fill:#ff8b7b}.F{fill:#fff}.G{opacity:.4}.H{fill:#ffc3bd}]]></style><ellipse cx="250" cy="416.24" rx="193.89" ry="11.32" fill="#f5f5f5"/><path d="M348.15 115.36c-2.13-2.13-6.23-10.2-2.3-14s7.43-.35 7.7 1.5-.45 17.44-5.4 12.5z" class="C"/><path d="M347.25 405.65l-8.93.08-2.43-20.64 8.92-.08 2.44 20.64z" class="E"/><path d="M338.3 404.7l9.74-.1a.85.85 0 0 1 .8.6l2.36 7.9a1.21 1.21 0 0 1-1.17 1.6c-3.5 0-8.6-.2-13-.15-5.16 0-7.46.36-13.52.42-3.66 0-5-3.66-3.45-4 6.87-1.6 10.42-1.8 16.17-5.57a3.83 3.83 0 0 1 2.07-.72z" class="C"/><path d="M335.9 385.1l1.26 10.64 8.92-.08-1.25-10.64-8.93.08z" class="D"/><g class="B"><path d="M334.62 406.3a13.89 13.89 0 0 0 2.86-.35.2.2 0 0 0 .17-.18.21.21 0 0 0-.12-.21c-.42-.2-4.17-2-5.2-1.37a.65.65 0 0 0-.3.57 1.25 1.25 0 0 0 .48 1 3.41 3.41 0 0 0 2.11.54zm2.14-.64c-1.93.34-3.4.27-4-.2a.81.81 0 0 1-.31-.69.21.21 0 0 1 .1-.21c.56-.34 2.68.46 4.2 1.1z"/><path d="M337.44 406a.24.24 0 0 0 .13-.05.19.19 0 0 0 .07-.2c0-.16-.7-4-2.82-3.76-.56.06-.72.35-.75.57-.15 1 2.14 2.94 3.28 3.42zm-2.44-3.6c1.28 0 1.92 2.1 2.14 3-1.18-.66-2.74-2.18-2.65-2.78 0 0 0-.17.38-.2z"/></g><path d="M340.94 160.43l-.92 1-.86.85-1.75 1.6q-1.76 1.58-3.6 3a70 70 0 0 1-7.8 5.38l-4.2 2.3c-1.43.73-2.94 1.36-4.46 2a44.75 44.75 0 0 1-9.68 2.65l-.74.1a11 11 0 0 1-1.45.09 9 9 0 0 1-3.25-.64 8.85 8.85 0 0 1-2.77-1.77 10.13 10.13 0 0 1-1.66-2.06 13.57 13.57 0 0 1-1.43-3.51 21.61 21.61 0 0 1-.53-2.9 32.76 32.76 0 0 1-.15-5.09l.38-4.7c.38-3.07.92-6 1.58-9s1.4-5.77 2.38-8.67l6.57 1.3c-.24 5.62-.5 11.38-.33 16.82a40.71 40.71 0 0 0 .8 7.52 8.3 8.3 0 0 0 .41 1.34c.14.34.3.55.3.46a1.06 1.06 0 0 0-.27-.4 3.05 3.05 0 0 0-.94-.62 3.57 3.57 0 0 0-1.13-.27h-.26l.2-.06a37.75 37.75 0 0 0 6.88-2.5 59.41 59.41 0 0 0 6.69-3.78 88.47 88.47 0 0 0 6.37-4.65c1-.82 2.05-1.68 3-2.55l1.46-1.32.7-.65.6-.58z" class="E"/><path d="M346.23 156.9c-.34-9.43-8.08-12.7-17.78-6.28a132.1 132.1 0 0 0-12.33 8.85l6.27 20.14s12-3.8 18.94-11.3c4.67-5.08 5.02-8.2 4.9-11.42z" class="C"/><path d="M334.42 160.92s-5.8 8.28-7.84 17.08a56.71 56.71 0 0 0 8.2-4.32z" class="D"/><g class="E"><path d="M306.26 145.37l3.36-7.6-9.5-2.78s-1.63 3.63-.7 9.86z"/><path d="M310.63 128.88l-8.27 1-2.25 5.13 9.5 2.78 1-8.9z"/></g><use xlink:href="#B" class="B"/><use xlink:href="#B" opacity=".6" class="F"/><path d="M353.67 239.83c-7.2 15.87-5.27 51.32-1.18 66.52l.47-6.23c1.67-20.34 5-46.63 7.1-62.2-1.96-2.84-4.15-3.06-6.4 1.9z" class="D"/><path d="M350.66 390.93l-18.94.38-1.4-6.3 20.1-.05.23 5.96z" class="B"/><path d="M387.04 405.65l-8.92.08-2.43-20.64 8.92-.08 2.43 20.64z" class="E"/><path d="M378.1 404.7l9.75-.1a.86.86 0 0 1 .8.6l2.36 7.9a1.22 1.22 0 0 1-1.17 1.6c-3.52 0-8.6-.2-13-.15-5.16 0-7.47.36-13.52.42-3.66 0-5-3.66-3.45-4 6.86-1.6 10.4-1.8 16.17-5.57a3.8 3.8 0 0 1 2.06-.72z" class="C"/><path d="M375.7 385.1l1.25 10.64 8.93-.08-1.25-10.64-8.93.08z" class="D"/><g class="B"><path d="M374.42 406.3a14.07 14.07 0 0 0 2.86-.35.19.19 0 0 0 .16-.18.2.2 0 0 0-.11-.21c-.43-.2-4.18-2-5.2-1.37a.63.63 0 0 0-.3.57 1.27 1.27 0 0 0 .47 1 3.46 3.46 0 0 0 2.12.54zm2.14-.64c-1.93.34-3.4.27-4-.2a.85.85 0 0 1-.32-.69.21.21 0 0 1 .1-.21c.56-.34 2.66.46 4.22 1.1z"/><path d="M377.23 406a.22.22 0 0 0 .21-.25c0-.16-.7-4-2.82-3.76-.56.06-.72.35-.76.57-.14 1 2.15 2.94 3.3 3.42zm-2.43-3.6c1.27 0 1.92 2.1 2.14 3-1.18-.66-2.75-2.18-2.66-2.78 0 0 0-.17.38-.2z"/><use xlink:href="#C"/></g><use xlink:href="#C" opacity=".6" class="F"/><path d="M390.46 390.93l-18.95.38-1.4-6.3 20.1-.05.23 5.96z" class="B"/><path d="M333.37 148.15s-6.6 24.46 1.1 77.1l45.52-1c.18-7.33-5.23-43.27 1.1-77.92a93.57 93.57 0 0 0-13.78-1.34 174.4 174.4 0 0 0-20.28.44 89.49 89.49 0 0 0-13.67 2.71z" class="C"/><path d="M378.34 171l-7.45-6.17c.5 4.82 4.85 16.63 7.15 22.6-.04-5.24.01-10.77.3-16.44z" class="D"/><path d="M351.7 162.33l-8.13 16.1a1.79 1.79 0 0 0 2.42 2.4l5.3-2.92a1.75 1.75 0 0 1 1.85.12l5.23 3.77a1.73 1.73 0 0 0 2.64-2l-6.1-17.18a1.75 1.75 0 0 0-3.21-.28z" class="F"/><path d="M364.82 122.16c-1.14 6.56-2.16 18.54 2.5 22.8 0 0-1.36 5.94-13.77 8-8.34-2.68-6.5-7.52-6.5-7.52 7.24-1.9 6.93-7.3 5.56-12.33z" class="E"/><path d="M359.84 126.6l-7.24 6.44a21.06 21.06 0 0 1 .7 3.59c2.78-.46 6.53-3.6 6.76-6.5a9.73 9.73 0 0 0-.22-3.52z" class="D"/><path d="M368.8 114.1c-2.4 8.52-3.38 13.63-8.7 17.12-8 5.24-17.8-1-18-10.1-.18-8.16 3.78-20.73 13-22.33a12.08 12.08 0 0 1 13.7 15.3z" class="E"/><g class="C"><path d="M363.66 119.3c-1.12-2.72-1.93-11.68 2.74-13.88s9.52 3.17 8.3 5.7c-1.9 3.94-8.43 14.47-11.03 8.17z"/><path d="M366.45 108.6c-1.15-3-14.86-4.7-16.78-7.93-2.28-3.84 7.07-4.3 13.5-2.35 5.65 1.72 9.42 3.38 8.76 7.58-.37 2.38-5.48 2.7-5.48 2.7z"/><path d="M369.43 105.5s3 .82 4.64-1.38c-.52 2.18-3.07 4.38-4.64 1.38zm-13.73-9.25c-4.12-3.2-9.73.56-9.2 4.73s14.42 7.34 14.42 7.34.25-7.82-5.22-12.07z"/><path d="M346.5 101c.63 2.92 2.76 5.2 7.07 6.9a15.65 15.65 0 0 1-5.43-7.31zm8.66 12.66c-.15.7-.64 1.2-1.1 1.1s-.7-.76-.56-1.46.65-1.2 1.1-1.1.7.8.55 1.45zm-7.94-1.72c-.16.7-.65 1.2-1.1 1.1s-.7-.75-.56-1.45.65-1.2 1.1-1.1.7.76.56 1.46z"/></g><path d="M349.67,112.84a25.57,25.57,0,0,1-4.67,5.28c1,1.43,3.23,1.36,3.23,1.36Z" fill="#ff5652"/><path d="M349.85 121.87h0a6 6 0 0 0 5.4-1.31.21.21 0 0 0 0-.3.22.22 0 0 0-.3 0 5.72 5.72 0 0 1-5 1.19.215.215 0 0 0-.09.42zm8.25-10.25a.43.43 0 0 0 .48-.59 4.23 4.23 0 0 0-3-2.44.43.43 0 0 0-.48.36.42.42 0 0 0 .35.48h0a3.33 3.33 0 0 1 2.35 1.95.43.43 0 0 0 .3.24zm-13.78-3.17a.4.4 0 0 0 .43-.15 3.38 3.38 0 0 1 2.73-1.36.422.422 0 1 0 .08-.84 4.17 4.17 0 0 0-3.47 1.68.41.41 0 0 0 .07.59.35.35 0 0 0 .16.08z" class="C"/><path d="M383.28 153.16c1.82 3.18 3.34 6.26 4.92 9.43s3 6.36 4.35 9.62 2.66 6.57 3.8 10a101.49 101.49 0 0 1 3 10.43l.6 2.73a16.6 16.6 0 0 1 .34 3.9 19.5 19.5 0 0 1-1.59 7.06 31.78 31.78 0 0 1-7.11 10 58.5 58.5 0 0 1-8.7 6.93c-1.5 1-3.07 1.92-4.64 2.8s-3.13 1.7-4.88 2.46l-3.32-5.8c1.2-1 2.54-2 3.78-3.08s2.45-2.18 3.65-3.28a62.08 62.08 0 0 0 6.43-6.95 23.2 23.2 0 0 0 4-7.14 8 8 0 0 0 .36-3 5.2 5.2 0 0 0-.23-1.2l-.68-2.24a157.78 157.78 0 0 0-7.2-18.21c-1.37-3-2.83-6-4.3-9s-3-6-4.5-8.85z" class="E"/><path d="M381.44 146.4c8.34 1.8 14.14 23.56 14.14 23.56l-14.9 13.53a57.76 57.76 0 0 1-11-18c-3.95-10.9 2.85-21.03 11.77-19.1z" class="C"/><g class="E"><path d="M371.87 221.68l-9.6.1 6 9.67s6.83-1.7 7.44-5.12z"/><path d="M356.3 227.5l5.3 7.76 6.63-3.8-5.95-9.67-5.97 5.7zm15.1-105.6a8.45 8.45 0 0 1-5 4.06c-2.84.83-4.3-1.7-3.53-4.4.7-2.42 3-5.77 5.84-5.42s3.96 3.34 2.7 5.75z"/></g><path d="M275.752 288.12l10.662-.774.072.997-10.662.774zm15.006-1.085l5.236-.38.072.997-5.236.38zM342 169.27L165.44 182a14 14 0 0 0-12.88 14.89l6 83.22A14 14 0 0 0 173.47 293l10-.72a2.75 2.75 0 0 1 2.94 2.54l1.12 15.42a1.5 1.5 0 0 0 2.64.88l16.74-19.35a4.07 4.07 0 0 1 2.77-1.39L350 280.27a14 14 0 0 0 12.89-14.89l-6-83.22A14 14 0 0 0 342 169.27z" class="B"/><path d="M191.23 220.2l9.54-.7.78 10.8 10.42-.75-.78-10.8 9.58-.7 2.23 30.86-9.58.7-.9-12.48-10.42.76.9 12.48-9.53.7z" class="F"/><path d="M165.44 182a14 14 0 0 0-12.88 14.89l6 83.22A14 14 0 0 0 173.47 293l1.47-.1a11.12 11.12 0 0 0 10.12-9l20.1-104.76z" class="D"/><path d="M252.93 237.66l-17.18 1.24a5.52 5.52 0 0 0 1.34 3 4 4 0 0 0 3.34 1.22 4.93 4.93 0 0 0 2.36-.8 5.69 5.69 0 0 0 1.39-1.52l8.5.17a12.08 12.08 0 0 1-4.33 5.16q-2.62 1.66-7.74 2a16.21 16.21 0 0 1-7.08-.75 10.32 10.32 0 0 1-4.51-3.67 12.06 12.06 0 0 1-2.13-6.29 11.28 11.28 0 0 1 2.74-8.73q3.12-3.48 9-3.9a16.61 16.61 0 0 1 7.68.9 9.86 9.86 0 0 1 4.53 3.91 15.51 15.51 0 0 1 2 7.07zm-9-3.48a5.75 5.75 0 0 0-1.59-3.46 4.21 4.21 0 0 0-6.07 1 6 6 0 0 0-.78 3.09zm11.65-18.63l8.6-.62 2.23 30.85-8.6.62zm14.35-1.05l8.6-.62 2.23 30.85-8.58.62zm14.44 18.8a11.21 11.21 0 0 1 2.84-8.68q3.2-3.57 9.1-4 6.7-.48 10.42 3.16a12.21 12.21 0 0 1 .51 16.23q-3.18 3.54-9.22 4a13.34 13.34 0 0 1-8.92-2.1 11 11 0 0 1-4.72-8.61zm8.6-.64a6.7 6.7 0 0 0 1.53 4.33 4 4 0 0 0 6.08-.42 7 7 0 0 0 .86-4.61 6.59 6.59 0 0 0-1.51-4.24 3.72 3.72 0 0 0-3.07-1.2 3.87 3.87 0 0 0-3 1.66 6.61 6.61 0 0 0-.85 4.48zm19.8-21.26l9.15-.66.5 7-.75 14.25-5.66.4-2.75-14zm2 23.28l8.54-.62.55 7.56-8.55.6z" class="F"/><path d="M163 154.6a26.44 26.44 0 0 0 .23 4.38 58.62 58.62 0 0 1-28.15 2.23 25.73 25.73 0 0 0 .82-5.23 15.75 15.75 0 0 1-1.83 5.06l-2.78-.63s1.82-9.84-1.46-17-1.64-11.16.84-12.3c4.6-14.14 21.9-11.9 27.74-6.17 7.42 7.28 7.46 27.8 8.78 32.48-1.1.47-2.16.9-3.23 1.28a13.35 13.35 0 0 1-.96-4.11z" class="C"/><path d="M170.15 176.6l.9 2.85 1 2.95 2.12 5.92 2.25 5.9 1.16 3 .3.74.07.17a1.35 1.35 0 0 0-.42-.25c-.22-.08-.3 0-.17 0a2.41 2.41 0 0 0 .71-.11 10.88 10.88 0 0 0 2.24-1 40.76 40.76 0 0 0 4.88-3.34l4.77-4 4.64-4.26 3.07 2.6-4 5.23c-1.37 1.7-2.9 3.3-4.5 4.9a39.35 39.35 0 0 1-5.29 4.52 18 18 0 0 1-3.47 1.9 9.59 9.59 0 0 1-2.42.62 6.55 6.55 0 0 1-3.32-.45 6.31 6.31 0 0 1-2.8-2.34l-.4-.67-.27-.54-.36-.73-1.4-2.94-2.65-6-2.4-6.12-1.06-3.14-1-3.3z" class="H"/><use xlink:href="#D" class="B"/><use xlink:href="#D" class="F G"/><path d="M167.47 170.9l2.65 14.3-5.34 3.62 2.7-17.9z" opacity=".3"/><g class="H"><path d="M194.43 185.52l3.17-7.64 3.9 7.64s-2.54 3.8-5.9 2.87z"/><path d="M201.1 177.1l5.02 2.02-4.6 6.4-3.92-7.64 3.5-.8zm-51.97 229.35h8.37l.56-19.37h-8.37l-.56 19.37zM93 381.5l7.7 3.28 10.07-16.76-7.7-3.28L93 381.5z"/></g><path d="M102.18 383.64l-8-4.92a.66.66 0 0 0-.87.14l-4.8 5.77a1.35 1.35 0 0 0 .37 2l7.78 4.5 8.18 5.34c3 1.84 5-1 3.9-2.05-4.85-4.63-4.7-6.83-5.62-9.57a2.15 2.15 0 0 0-.92-1.2zm55.6 21.84h-9.4a.67.67 0 0 0-.67.57l-1.07 7.44A1.33 1.33 0 0 0 148 415l9-.25c2.54 0 7.8.27 11.3.27s3.7-3.47 2.23-3.8c-6.55-1.4-9.13-3.35-11.34-5.2a2.17 2.17 0 0 0-1.42-.55z" class="C"/><path d="M158.05 387.1l-.28 9.98h-8.37l.3-9.98h8.36zm-54.98-22.35l7.7 3.27-5.2 8.64-7.7-3.28 5.2-8.63z" class="D"/><use xlink:href="#E" class="B"/><g class="F"><use xlink:href="#E" class="G"/><path d="M138.22 165.58a110.17 110.17 0 0 1 15.43 0l2.52.27a4.12 4.12 0 0 1 .47 3.61c-1.1 2.7-5 3-7.84 3-10.5 0-12.3-6.14-12.36-6.4l-.1-.37z"/></g><path d="M139.75 148.22c1 5 1.95 14.06-1.53 17.37 0 0 1.36 5 10.58 5 10.14 0 4.85-5 4.85-5-5.54-1.32-5.4-5.43-4.43-9.28z" class="H"/><path d="M140.76 144.7c-1.2 3.93.46 13.23 2.9 16.83-4.83-2.77-6.46-11.2-6.46-11.2z" class="C"/><path d="M143.6 151.52l5.6 4.78a14.72 14.72 0 0 0-.48 2.74c-2.1-.3-5-2.63-5.24-4.84a7.52 7.52 0 0 1 .11-2.68z" class="D"/><path d="M135.17 139.36c1.94 8.07 2.58 11.53 7.44 15 7.3 5.2 16.8 1.07 17.3-7.42.46-7.64-2.78-19.55-11.33-21.4a11.32 11.32 0 0 0-13.42 13.81z" class="H"/><use xlink:href="#F" class="B"/><use xlink:href="#F" class="G"/><path d="M147.26 395.54h13.26l.98-4.23-14.86-.52.62 4.75z" class="B"/><path d="M149.14 234.23c8.34 16.78 1.67 47.4-1.28 58.78-1.5-17.1-4.06-38-6.05-53.37 1.26-8.64 3.48-13.15 7.33-5.4z" class="D"/><use xlink:href="#G" class="B"/><use xlink:href="#G" class="G"/><path d="M96.25 371.24l13.02 5.54 3.13-3.5-15.02-7.2-1.13 5.17z" class="B"/><g class="C"><path d="M148 139.47c.12.66.56 1.14 1 1.06s.7-.68.57-1.34-.56-1.14-1-1.07-.74.68-.57 1.35zm7.46-1.32c.1.66.56 1.14 1 1.06s.7-.68.58-1.34-.56-1.14-1-1.07-.7.68-.58 1.35z"/><path d="M155.85 136.88l1.5-.75s-.6 1.4-1.5.75z"/></g><path d="M153.67,139.64a17.88,17.88,0,0,0,3.12,3.82,2.92,2.92,0,0,1-2.29.86Z" fill="#ed847e"/><path d="M151.5 147.45a6.57 6.57 0 0 0 1.13-.1.2.2 0 1 0-.07-.39 5.32 5.32 0 0 1-4.65-1.31.2.2 0 0 0-.28 0 .19.19 0 0 0 0 .28 5.54 5.54 0 0 0 3.87 1.52zM138 134.63a59.14 59.14 0 0 0 1 6.33s5-6.33 5.83-9.72a14.23 14.23 0 0 1-1.15 3.86s6.73-1.47 7.4-5.9a28.24 28.24 0 0 1-.66 5.91s6.42-2.52 5.83-6.78-10.45-5.9-15-4.47-9 6.1-7.66 12.53 3.9 8.83 3.9 8.83-1.85-6.47.5-10.58z" class="C"/><path d="M134.82 145.44a6.06 6.06 0 0 0 3.28 3.27c2 .8 3.2-.9 2.84-2.9-.3-1.8-1.72-4.35-3.8-4.3a2.73 2.73 0 0 0-2.33 3.93z" class="H"/><path d="M139.2 131.55c-1 4 1.08 13.2 3.7 16.67-5-2.53-7-10.9-7-10.9zm6.06 5.65a.4.4 0 0 0 .24-.2 3.15 3.15 0 0 1 2.26-1.76.41.41 0 0 0 .35-.44.39.39 0 0 0-.44-.35 3.93 3.93 0 0 0-2.88 2.19.4.4 0 0 0 .47.56zm12.94-3.1a.35.35 0 0 0 .27-.11.4.4 0 0 0 0-.56 4 4 0 0 0-3.39-1.26.4.4 0 0 0-.32.47.4.4 0 0 0 .46.31 3.15 3.15 0 0 1 2.67 1 .4.4 0 0 0 .31.15z" class="C"/><path d="M127.93 179.36c-1.4 4.4-2.72 9-3.85 13.54a102.19 102.19 0 0 0-2.49 13.63l-.08.84v.57a13 13 0 0 0 .11 1.41 32.18 32.18 0 0 0 .55 3.26c.47 2.23 1 4.53 1.68 6.8s1.26 4.6 1.94 6.9l2 6.9-3.7 1.53c-2.28-4.36-4.26-8.8-6.1-13.38-.9-2.3-1.76-4.62-2.48-7.07-.36-1.22-.7-2.47-1-3.83a18.82 18.82 0 0 1-.3-2.18v-2.25a65.39 65.39 0 0 1 .7-7.61c.33-2.5.82-4.94 1.35-7.37a122.63 122.63 0 0 1 4-14.37z" class="H"/><use xlink:href="#H" class="B"/><use xlink:href="#H" class="F G"/><g class="B"><path d="M105.56 386.82a1.17 1.17 0 0 0 .71-.7.7.7 0 0 0 0-.68c-.6-.88-3.63-.8-4-.8a.2.2 0 0 0-.18.12.2.2 0 0 0 0 .21c.8.8 2.27 2.08 3.3 1.88zm-2.8-1.82c1.2 0 2.83.17 3.15.64a.29.29 0 0 1 0 .3.78.78 0 0 1-.55.49c-.55.14-1.5-.43-2.6-1.43z"/><path d="M103.64 384.8c.92-.3 1.9-.8 2.1-1.37a.7.7 0 0 0-.28-.82 1 1 0 0 0-.85-.21c-1.2.2-2.47 2.25-2.52 2.34a.2.2 0 0 0 0 .2.21.21 0 0 0 .17.1 4.81 4.81 0 0 0 1.37-.24zm.92-2h.13a.65.65 0 0 1 .54.13c.2.16.18.28.15.37-.2.55-1.72 1.2-2.73 1.34a4.93 4.93 0 0 1 1.91-1.82zm56.36 24.14a3.17 3.17 0 0 0 2-.51 1.13 1.13 0 0 0 .36-1 .64.64 0 0 0-.34-.52c-1-.56-4.35 1.14-4.73 1.33a.2.2 0 0 0 0 .37 13.51 13.51 0 0 0 2.71.33zm1.5-1.73a.76.76 0 0 1 .37.07.25.25 0 0 1 .13.22.7.7 0 0 1-.22.63c-.5.46-1.9.54-3.74.23a10.81 10.81 0 0 1 3.46-1.15z"/><path d="M158.33 406.65h.08c1-.45 3-2.25 2.82-3.2 0-.23-.2-.5-.75-.56a1.44 1.44 0 0 0-1.1.34c-1 .88-1.24 3.13-1.25 3.22a.21.21 0 0 0 .09.18.15.15 0 0 0 .11.02zm2-3.4h.12c.36 0 .4.2.4.23.1.57-1.24 2-2.26 2.6a4.59 4.59 0 0 1 1.07-2.58 1 1 0 0 1 .67-.26z"/></g><path d="M129.3 216.2l-.86 3c-.12.23.16.47.55.47h35c.3 0 .56-.15.58-.34l.3-3c0-.2-.25-.4-.58-.4h-34.44a.63.63 0 0 0-.56.26z" class="C"/><use xlink:href="#I" class="B"/><use xlink:href="#I" class="G"/><use xlink:href="#J" class="B"/><use xlink:href="#J" class="G"/><use xlink:href="#K" class="B"/><use xlink:href="#K" class="G"/><path d="M148.34 138.2l1.5-.74s-.6 1.4-1.5.74z" class="C"/><g class="H"><path d="M127.5 232.1l7.17 5.5-8.3 1.83s-3.53-4-2.3-7.3z"/><path d="M136.44 244.4l-7.04 1.15-3.84-7.22 9.12-.74 1.76 6.8z"/></g><defs ><path id="B" d="M334.48 225.26s-6.14 51.46-6.82 79c-.7 28.6 4.9 86.32 4.9 86.32l16.1-.34s1.94-61.78 4.28-90.1c2.54-30.86 8.94-75.45 8.94-75.45z"/><path id="C" d="M350.2 224.92l7.7 82.7c3.37 28.42 14.47 82.94 14.47 82.94l16.1-.34-6.13-90.26c-1.87-30.95-2.35-75.7-2.35-75.7z"/><path id="D" d="M167.78 167.73c3.45.88 5.86 15.06 5.86 15.06l-9.5 6.46s-9.1-14.3-6.45-18.1c2.76-3.94 5.06-4.7 10.1-3.42z"/><path id="E" d="M167.78 167.73s4 1.4-4 50.47h-34c.57-13.82.6-22.34-6-50.7a100 100 0 0 1 14.42-1.9 107.26 107.26 0 0 1 15.43 0c6.64.6 14.15 2.14 14.15 2.14z"/><path id="F" d="M163.8 218.2s6.6 64.42 6 89.92c-.57 26.52-10.3 87-10.3 87h-11.3s1.8-58.95.8-85c-1.1-28.4-10.1-91.94-10.1-91.94z"/><path id="G" d="M154.82 218.2s-7.7 67-13.5 88.47c-6.9 25.53-33.12 69-33.12 69l-10.5-4.46 21.5-62.8c11.25-28.7 1.62-71.47 10.6-90.2z"/><path id="H" d="M123.8 167.5c-3.4 1-7.5 12.75-7.5 12.75l13.2 9.44s4.82-9.78 3.4-14.18c-1.5-4.58-5.2-9.2-9.1-8z"/><path id="I" d="M133.93 220.05H133c-.18 0-.32-.1-.3-.2l.43-4c0-.1.18-.2.36-.2h.92c.2 0 .32.1.3.2l-.43 4c0 .16-.16.2-.35.2z"/><path id="J" d="M161.36 220.05h-.92c-.18 0-.32-.1-.3-.2l.44-4c0-.1.17-.2.35-.2h.92c.2 0 .33.1.3.2l-.43 4c-.01.16-.17.2-.36.2z"/><path id="K" d="M147.65 220.05h-.92c-.2 0-.33-.1-.3-.2l.43-4c0-.1.17-.2.36-.2h.92c.18 0 .32.1.3.2l-.43 4c-.01.16-.18.2-.36.2z"/></defs></svg>