<svg xmlns="http://www.w3.org/2000/svg" xmlns:xlink="http://www.w3.org/1999/xlink" viewBox="0 0 1000 679.59"><defs><style>.cls-1,.cls-10,.cls-11,.cls-12,.cls-13,.cls-14,.cls-15,.cls-21,.cls-23,.cls-24,.cls-25,.cls-26,.cls-27,.cls-32,.cls-36,.cls-4,.cls-40,.cls-47,.cls-5,.cls-58,.cls-60,.cls-63,.cls-70,.cls-73,.cls-9{fill:none;}.cls-2{isolation:isolate;}.cls-3{fill:#e1f1ff;}.cls-26,.cls-27,.cls-4,.cls-5{stroke:#a1c7ff;}.cls-10,.cls-11,.cls-12,.cls-13,.cls-14,.cls-24,.cls-25,.cls-27,.cls-4,.cls-5,.cls-9{stroke-linejoin:round;}.cls-10,.cls-11,.cls-12,.cls-13,.cls-15,.cls-21,.cls-23,.cls-24,.cls-26,.cls-27,.cls-32,.cls-36,.cls-4,.cls-5,.cls-7,.cls-70,.cls-8,.cls-9{stroke-width:2.07px;}.cls-5{stroke-dasharray:6.24 5.2;}.cls-17,.cls-6,.cls-7{fill:#fff;}.cls-24,.cls-6,.cls-7,.cls-8{stroke:#89b5f4;}.cls-15,.cls-21,.cls-23,.cls-26,.cls-32,.cls-36,.cls-40,.cls-47,.cls-58,.cls-6,.cls-60,.cls-63,.cls-7,.cls-70,.cls-73,.cls-8{stroke-miterlimit:10;}.cls-14,.cls-6{stroke-width:4.15px;}.cls-31,.cls-8{fill:#e9f1ff;}.cls-10,.cls-11,.cls-12,.cls-13,.cls-23,.cls-25,.cls-9{stroke:#4a63fe;}.cls-10{stroke-dasharray:6.26 4.17;}.cls-11{stroke-dasharray:6.1 4.07;}.cls-12{stroke-dasharray:6.26 4.17;}.cls-13{stroke-dasharray:6.1 4.07;}.cls-14,.cls-21{stroke:#202263;}.cls-14,.cls-26,.cls-27{stroke-linecap:round;}.cls-15{stroke:#fff;}.cls-16{fill:#ffac06;}.cls-18{fill:#4a63fe;}.cls-19{clip-path:url(#clip-path);}.cls-20{opacity:0.44;}.cls-21{stroke-dasharray:6.22 4.15;}.cls-22{fill:#202263;}.cls-23{stroke-dasharray:6.34 4.23;}.cls-25{stroke-width:1.56px;}.cls-28{fill:#a1c7ff;}.cls-29,.cls-30{fill:#2f40dd;}.cls-30{opacity:0.55;}.cls-30,.cls-49{mix-blend-mode:multiply;}.cls-32{stroke:#bbd8f9;}.cls-33{fill:#ffcd2e;}.cls-34{fill:#ffcc5a;}.cls-35{fill:#ffead7;}.cls-36{stroke:#ffd19f;}.cls-37{fill:#fe881c;}.cls-38{fill:#212237;}.cls-39{fill:#ffceb6;}.cls-40{stroke:#4d59a3;}.cls-40,.cls-47,.cls-58,.cls-60,.cls-63,.cls-73{stroke-width:1.04px;}.cls-41,.cls-61{fill:#f2b18f;}.cls-42{fill:#ffd9c0;}.cls-43{fill:#ffc088;}.cls-44{fill:#ffaf5f;}.cls-45{fill:#f78d37;}.cls-46{fill:#ffcda4;}.cls-47{stroke:#6e94ff;}.cls-48,.cls-49{fill:#c7e2ff;}.cls-50{fill:#f0f8ff;}.cls-51{clip-path:url(#clip-path-2);}.cls-52{opacity:0.35;}.cls-53{fill:#a4d0ff;}.cls-54{clip-path:url(#clip-path-3);}.cls-55{fill:#ff7d12;}.cls-56{fill:#2e53ed;}.cls-57{fill:#091e89;}.cls-58{stroke:#2058bc;}.cls-59{fill:#103bb2;}.cls-60{stroke:#4873d3;}.cls-61{fill-rule:evenodd;}.cls-62{fill:#22252d;}.cls-63{stroke:#ba4a13;}.cls-64{fill:#ffd19f;}.cls-65{fill:#b8daff;}.cls-66{fill:#6486f2;}.cls-67{fill:#ff8f08;}.cls-68{fill:#ffd8bd;}.cls-69{fill:#ffc69f;}.cls-70{stroke:#254bb7;}.cls-71{fill:#254bb7;}.cls-72{fill:#141744;}.cls-73{stroke:#1c38ad;}</style><clipPath id="clip-path"><circle class="cls-1" cx="471.43" cy="278.79" r="18.44" transform="translate(-70.63 200.42) rotate(-22.37)"/></clipPath><clipPath id="clip-path-2"><polygon class="cls-1" points="622.14 484.73 591.58 484.73 586.38 464.98 616.94 464.98 622.14 484.73"/></clipPath><clipPath id="clip-path-3"><polygon class="cls-1" points="630.75 495.52 601.63 495.52 596.67 476.7 625.79 476.7 630.75 495.52"/></clipPath></defs><title>mission-svg</title><g class="cls-2"><g id="OBJECTS"><path class="cls-3" d="M609,191.05a10.24,10.24,0,0,1,4.18.89,7.63,7.63,0,0,1,14.74-4,17.26,17.26,0,0,1,34.51.75,17,17,0,0,1-.32,3.28,11.88,11.88,0,1,1,9,19.59H609a10.28,10.28,0,1,1,0-20.55Z"/><path class="cls-4" d="M408.93,480.88c-1-.22-2-.42-3.05-.59"/><path class="cls-5" d="M400.74,479.57c-37.79-4-86,15.93-123,19.21-75.2,6.67-120-27.76-139.78-61.56-24.76-42.35-17.17-97.2,25.45-138.1,47.62-45.71,97-41.84,155.62-61.33,52.69-17.53,96.92-61.31,137.33-107.06C524.09,54,654.45,67.19,689.32,180c11.89,38.49,14.17,76.63,51.21,100.38C785.21,309.05,842.4,306,890.81,325,932,341.18,964,383.61,956.75,429.16c-8.09,50.53-59.29,90.32-105.7,104.07C802.9,547.5,757.44,541.89,709,544"/><path class="cls-4" d="M706.39,544.1l-3.11.17"/><line class="cls-6" x1="400.09" y1="601.92" x2="411.19" y2="515.22"/><line class="cls-6" x1="541.54" y1="601.92" x2="530.44" y2="515.22"/><rect class="cls-7" x="331" y="148.72" width="279.62" height="373.42"/><rect class="cls-8" x="299.46" y="210.97" width="342.72" height="248.92" transform="translate(806.24 -135.39) rotate(90)"/><path class="cls-9" d="M424.69,333.9c1.59-1.17,2.56-1.77,2.56-1.77s.4,1.07,1.07,2.92"/><path class="cls-10" d="M429.68,339c5.12,15.14,15.54,50.41,3.29,55.18-12.41,4.84-24.81,33-29.41,44.51"/><path class="cls-9" d="M402.79,440.62c-.71,1.83-1.1,2.91-1.1,2.91s-.19-1.12-.5-3.07"/><path class="cls-11" d="M400.58,436.44c-2-14.05-5.84-45.71-1.93-64.77,3.78-18.4,17.43-31.1,24.41-36.54"/><path class="cls-9" d="M518.16,333.9c-1.59-1.17-2.56-1.77-2.56-1.77s-.4,1.07-1.07,2.92"/><path class="cls-12" d="M513.17,339c-5.12,15.14-15.54,50.41-3.29,55.18,12.41,4.84,24.81,33,29.41,44.51"/><path class="cls-9" d="M540.06,440.62c.71,1.83,1.1,2.91,1.1,2.91s.19-1.12.5-3.07"/><path class="cls-13" d="M542.27,436.44c2-14.05,5.84-45.71,1.93-64.77-3.78-18.4-17.43-31.1-24.41-36.54"/><line class="cls-14" x1="471.23" y1="225.23" x2="471.23" y2="193.77"/><path class="cls-15" d="M505.62,395.39c2.06,38.38-34.19,61.66-34.19,61.66s-34.23-22.61-34.19-61.66C437.27,377.7,504.67,377.73,505.62,395.39Z"/><path class="cls-15" d="M471.55,444.71c-8.35-7.3-24.19-24.22-24.73-48,2.51-1.86,11-4.68,24.24-4.68,13.87,0,22.67,3.05,25.05,5C496.84,420.44,480.26,437.44,471.55,444.71Z"/><path class="cls-15" d="M471.7,431.26c-6-6.58-15.19-21.47-14.8-34.58a71.31,71.31,0,0,1,29.17.24C486.39,410.29,478,424.69,471.7,431.26Z"/><path class="cls-16" d="M515.29,259c-14.37-32.66-43.85-46.84-43.85-46.84-5.22,2.2-29.51,14.18-43.88,46.84-17.36,39.46,2.13,140.9,2.13,140.9h83.47S532.65,298.5,515.29,259Z"/><path class="cls-17" d="M427.54,387.49h87.77c.32-2,.67-4.25,1-6.66H426.51C426.87,383.24,427.22,385.47,427.54,387.49Z"/><circle class="cls-18" cx="471.43" cy="278.79" r="18.44" transform="translate(-70.63 200.42) rotate(-22.37)"/><g class="cls-19"><g class="cls-20"><rect class="cls-17" x="469.23" y="255.81" width="4.41" height="45.97" transform="translate(309.46 -244.41) rotate(42.2)"/><rect class="cls-17" x="474.36" y="260.17" width="2.83" height="45.97" transform="translate(313.54 -246.2) rotate(42.2)"/><rect class="cls-17" x="465.26" y="251.92" width="2.83" height="45.97" transform="translate(305.64 -242.23) rotate(42.2)"/></g></g><path class="cls-21" d="M471.43,253.83a25,25,0,1,0,24.95,25A25,25,0,0,0,471.43,253.83Zm0,43.39a18.44,18.44,0,1,1,18.43-18.43A18.43,18.43,0,0,1,471.43,297.22Z"/><path class="cls-22" d="M504.77,241.06a101.58,101.58,0,0,0-33.33-28.86c-4.12,1.73-20.12,9.57-33.75,28.85Z"/><path class="cls-17" d="M433.79,247h75.09l-.84-1.31H434.59C434.32,246.15,434.06,246.59,433.79,247Z"/><path class="cls-23" d="M471.43,338.88c-17.68,2.94-5.69,92.49-1.37,121.19a1.37,1.37,0,0,0,2.73,0C477.11,431.37,489.1,341.82,471.43,338.88Z"/><line class="cls-24" x1="539.36" y1="196.73" x2="564.68" y2="196.73"/><line class="cls-24" x1="539.36" y1="201.36" x2="579.72" y2="201.36"/><line class="cls-24" x1="539.36" y1="205.99" x2="579.72" y2="205.99"/><line class="cls-24" x1="539.36" y1="210.62" x2="579.72" y2="210.62"/><line class="cls-24" x1="368.9" y1="225.6" x2="394.23" y2="225.6"/><line class="cls-24" x1="368.9" y1="230.23" x2="409.26" y2="230.23"/><line class="cls-24" x1="368.9" y1="234.85" x2="409.26" y2="234.85"/><line class="cls-24" x1="368.9" y1="239.48" x2="409.26" y2="239.48"/><line class="cls-24" x1="565.76" y1="279.87" x2="579.83" y2="279.87"/><line class="cls-24" x1="539.36" y1="284.5" x2="579.72" y2="284.5"/><line class="cls-24" x1="539.36" y1="289.13" x2="579.72" y2="289.13"/><line class="cls-24" x1="539.36" y1="293.76" x2="579.72" y2="293.76"/><line class="cls-24" x1="388.23" y1="463.95" x2="402.3" y2="463.95"/><line class="cls-24" x1="361.82" y1="468.58" x2="402.18" y2="468.58"/><line class="cls-24" x1="361.82" y1="473.21" x2="402.18" y2="473.21"/><line class="cls-24" x1="361.82" y1="477.83" x2="402.18" y2="477.83"/><line class="cls-24" x1="548.35" y1="457.6" x2="523.19" y2="457.6"/><line class="cls-24" x1="563.67" y1="462.23" x2="523.31" y2="462.23"/><line class="cls-24" x1="563.67" y1="466.86" x2="523.31" y2="466.86"/><line class="cls-24" x1="563.67" y1="471.49" x2="523.31" y2="471.49"/><polyline class="cls-25" points="474.7 229.6 501.84 229.6 501.84 202.46 531.99 202.46"/><circle class="cls-18" cx="474.7" cy="229.6" r="1.54"/><polyline class="cls-25" points="446.49 278.79 385.79 278.79 385.79 245.93"/><path class="cls-18" d="M448,278.84a1.54,1.54,0,1,0-1.54,1.54A1.54,1.54,0,0,0,448,278.84Z"/><polyline class="cls-25" points="410.47 368.46 374.17 368.46 374.17 457.05"/><path class="cls-18" d="M412,368.46a1.54,1.54,0,1,0-1.54,1.54A1.54,1.54,0,0,0,412,368.46Z"/><polyline class="cls-25" points="470.02 367.01 503.99 367.01 503.99 457.05 519.04 457.05"/><path class="cls-18" d="M471.56,367a1.54,1.54,0,1,0-1.54,1.54A1.54,1.54,0,0,0,471.56,367Z"/><polyline class="cls-25" points="532.46 361.2 557.15 361.2 557.15 299.12"/><circle class="cls-18" cx="532.46" cy="361.56" r="1.54"/><line class="cls-26" x1="621.9" y1="128.12" x2="639.8" y2="128.12"/><line class="cls-26" x1="699.75" y1="411.42" x2="717.65" y2="411.42"/><line class="cls-26" x1="604.51" y1="128.12" x2="615.17" y2="128.12"/><line class="cls-26" x1="891.39" y1="291.19" x2="909.29" y2="291.19"/><line class="cls-26" x1="874" y1="291.19" x2="884.66" y2="291.19"/><line class="cls-26" x1="716.01" y1="403.55" x2="726.67" y2="403.55"/><line class="cls-26" x1="157.55" y1="374.17" x2="175.44" y2="374.17"/><line class="cls-26" x1="140.16" y1="374.17" x2="150.82" y2="374.17"/><path class="cls-26" d="M122.94,241.06a3.28,3.28,0,1,1-3.28-3.27A3.28,3.28,0,0,1,122.94,241.06Z"/><path class="cls-26" d="M393.55,124.84a3.28,3.28,0,1,1-3.28-3.27A3.28,3.28,0,0,1,393.55,124.84Z"/><path class="cls-26" d="M867.72,263.62a3.28,3.28,0,1,1-3.28-3.28A3.27,3.27,0,0,1,867.72,263.62Z"/><path class="cls-26" d="M652.4,375.43a3.28,3.28,0,1,1-3.28-3.27A3.28,3.28,0,0,1,652.4,375.43Z"/><line class="cls-26" x1="200.66" y1="329.89" x2="200.66" y2="339.08"/><line class="cls-26" x1="205.26" y1="334.49" x2="196.07" y2="334.49"/><line class="cls-26" x1="457.51" y1="87.74" x2="457.51" y2="96.94"/><line class="cls-26" x1="462.11" y1="92.34" x2="452.92" y2="92.34"/><line class="cls-26" x1="245.79" y1="159.47" x2="245.79" y2="168.66"/><line class="cls-26" x1="250.38" y1="164.07" x2="241.19" y2="164.07"/><line class="cls-26" x1="675.71" y1="230.26" x2="675.71" y2="239.45"/><line class="cls-26" x1="680.31" y1="234.85" x2="671.11" y2="234.85"/><line class="cls-26" x1="889.46" y1="452.45" x2="889.46" y2="461.65"/><line class="cls-26" x1="894.05" y1="457.05" x2="884.86" y2="457.05"/><path class="cls-27" d="M200.28,404.61a17.18,17.18,0,1,1-22.58-9A17.18,17.18,0,0,1,200.28,404.61Z"/><path class="cls-27" d="M188.19,420c-13.64,5.89-29.43,9.14-31.82,3.59-1.88-4.35,6.45-10.81,11-13.83l-.08,2.49c-7.52,5-7.43,7.77-6.68,9.5,1.37,3.17,11.25,3.11,26.75-3.58s22.33-13.83,21-17c-.76-1.77-2.78-3.77-11.51-1.68L195,397.87c9.07-2.16,16.2-1.82,17.6,1.41C215,404.83,201.83,414.08,188.19,420Z"/><circle class="cls-27" cx="767.62" cy="199.36" r="24.47" transform="translate(470.66 934.75) rotate(-82.57)"/><path class="cls-27" d="M763.77,212.08c-20.28-6-40.53-16.83-38.08-25.08,1.91-6.48,16.91-5.95,24.68-5.07L748,184.58c-12.74-1.44-15.21,1.73-16,4.3-1.4,4.72,9.48,13.66,32.53,20.48s37,5.23,38.44.51c.77-2.62.39-6.65-11.06-12.33l-.55-3.38c11.9,5.91,19.39,12.79,18,17.59C806.94,220,784.06,218.08,763.77,212.08Z"/><polygon class="cls-27" points="691.76 322.21 669.57 334.49 655.55 332.8 677.74 320.52 691.76 322.21"/><polygon class="cls-27" points="679.15 298.94 656.95 311.22 642.93 309.53 665.13 297.26 679.15 298.94"/><line class="cls-27" x1="679.15" y1="298.94" x2="691.77" y2="322.21"/><line class="cls-27" x1="656.72" y1="311.42" x2="669.57" y2="334.49"/><line class="cls-27" x1="642.7" y1="309.73" x2="655.55" y2="332.8"/><line class="cls-27" x1="664.9" y1="297.46" x2="677.74" y2="320.53"/><polygon class="cls-27" points="883.19 385.91 883.7 370.44 895.67 380.25 910.55 375.95 904.92 390.37 913.61 403.19 898.15 402.29 888.64 414.52 884.72 399.54 870.15 394.27 883.19 385.91"/><polygon class="cls-27" points="300.89 112.38 309.86 103.51 311.44 116.02 322.64 121.81 311.23 127.18 309.18 139.63 300.55 130.43 288.08 132.33 294.16 121.28 288.5 110.01 300.89 112.38"/><polygon class="cls-27" points="184.51 199.32 165.44 201.85 140.39 184.74 157 181.21 184.51 199.32"/><polyline class="cls-27" points="165.44 201.85 179.84 164.59 184.51 199.32"/><polyline class="cls-27" points="140.39 184.74 179.84 164.59 157 181.21"/><path class="cls-3" d="M147.27,303.38a18.12,18.12,0,0,0-7.4,1.59,13.48,13.48,0,0,0-26-7,30.5,30.5,0,1,0-60.42,7.11,21,21,0,1,0-16,34.63H147.27a18.17,18.17,0,1,0,0-36.33Z"/><rect class="cls-28" x="36.72" y="599.85" width="922.49" height="2.07"/><path class="cls-29" d="M796.71,458.63h43.84a6.91,6.91,0,0,1,6.91,6.91v222a0,0,0,0,1,0,0H789.8a0,0,0,0,1,0,0v-222A6.91,6.91,0,0,1,796.71,458.63Z" transform="translate(1391.72 -245.54) rotate(90)"/><path class="cls-30" d="M913.38,544.25h-5.09a14.37,14.37,0,0,1,14.35,14.35v29a14.36,14.36,0,0,1-14.35,14.34h5.09a14.35,14.35,0,0,0,14.34-14.34v-29A14.36,14.36,0,0,0,913.38,544.25Z"/><path class="cls-30" d="M882.66,544.25h-5.08a14.36,14.36,0,0,1,14.34,14.35v29a14.35,14.35,0,0,1-14.34,14.34h5.08A14.36,14.36,0,0,0,897,587.58v-29A14.37,14.37,0,0,0,882.66,544.25Z"/><path class="cls-18" d="M747.89,462.07h43.84a6.91,6.91,0,0,1,6.91,6.91V684.11a0,0,0,0,1,0,0H741a0,0,0,0,1,0,0V469A6.91,6.91,0,0,1,747.89,462.07Z" transform="translate(1342.9 -196.72) rotate(90)"/><path class="cls-31" d="M658.79,551.13H870.36a3.6,3.6,0,0,1,3.6,3.6v36.72a3.6,3.6,0,0,1-3.6,3.6H658.79a0,0,0,0,1,0,0V551.13A0,0,0,0,1,658.79,551.13Z"/><line class="cls-32" x1="873.96" y1="562.34" x2="673.66" y2="562.34"/><line class="cls-32" x1="873.96" y1="573.09" x2="796.88" y2="573.09"/><line class="cls-32" x1="873.96" y1="583.28" x2="683.3" y2="583.28"/><line class="cls-32" x1="786.49" y1="573.09" x2="709.41" y2="573.09"/><path class="cls-16" d="M770.58,401h43.84a6.91,6.91,0,0,1,6.91,6.91v222a0,0,0,0,1,0,0H763.67a0,0,0,0,1,0,0v-222A6.91,6.91,0,0,1,770.58,401Z" transform="translate(1307.92 -277.08) rotate(90)"/><path class="cls-33" d="M887.25,486.59h-5.08a14.36,14.36,0,0,1,14.34,14.34v29a14.36,14.36,0,0,1-14.34,14.34h5.08a14.36,14.36,0,0,0,14.35-14.34v-29A14.36,14.36,0,0,0,887.25,486.59Z"/><path class="cls-33" d="M856.53,486.59h-5.08a14.35,14.35,0,0,1,14.34,14.34v29a14.35,14.35,0,0,1-14.34,14.34h5.08a14.36,14.36,0,0,0,14.35-14.34v-29A14.36,14.36,0,0,0,856.53,486.59Z"/><path class="cls-34" d="M721.76,404.4h43.84a6.91,6.91,0,0,1,6.91,6.91V626.44a0,0,0,0,1,0,0H714.85a0,0,0,0,1,0,0V411.31A6.91,6.91,0,0,1,721.76,404.4Z" transform="translate(1259.11 -228.26) rotate(90)"/><path class="cls-35" d="M632.66,493.46H844.23a3.6,3.6,0,0,1,3.6,3.6v36.72a3.6,3.6,0,0,1-3.6,3.6H632.66a0,0,0,0,1,0,0V493.46A0,0,0,0,1,632.66,493.46Z"/><line class="cls-36" x1="847.83" y1="504.68" x2="647.53" y2="504.68"/><line class="cls-36" x1="847.83" y1="515.42" x2="770.75" y2="515.42"/><line class="cls-36" x1="847.83" y1="525.61" x2="657.18" y2="525.61"/><line class="cls-36" x1="760.36" y1="515.42" x2="683.28" y2="515.42"/><path class="cls-37" d="M811.75,579.72a.16.16,0,0,0,0-.31.16.16,0,0,0,0,.31Z"/><polygon class="cls-38" points="771.64 593.91 809.67 576.58 808.23 573.55 770.2 590.89 771.64 593.91"/><path class="cls-18" d="M797.09,563.29l3.64-.72s3.22,3.73,5.07,6.5a22.53,22.53,0,0,1,2.43,4.49l-38,17.33s.16-2.43,6.81-11.88a21.68,21.68,0,0,0,3.36-7Z"/><path class="cls-39" d="M795.26,549.75l5.47,12.82s-.71,2.66-7.17,5.6a53.91,53.91,0,0,1-13.19,3.89L770.2,552.53"/><rect class="cls-38" x="792.36" y="599.14" width="41.79" height="2.75" transform="translate(1627.2 1200.12) rotate(179.94)"/><path class="cls-18" d="M828.2,584.58l3.62.85s1.38,4.72,1.92,8a30.67,30.67,0,0,1,.42,5.68l-41.8,0s1.09-2.74,11.06-8.59a21.77,21.77,0,0,0,5.93-4.93Z"/><path class="cls-39" d="M832.14,571.49l-.32,13.94s-1.75,2.12-8.85,2.13a54.26,54.26,0,0,1-13.62-1.91l-1.17-22"/><path class="cls-22" d="M766.4,366.07s-26.69,68.17-29,100.39,29.92,102.05,29.92,102.05l36.06-14.58s-24.55-62.15-20.72-81.33,20-61.38,20-61.38l4.6-50.63"/><path class="cls-22" d="M830.77,370.5c11,20.78,7.5,98.2,6.38,123.58s1.53,83.63,1.53,83.63H797.51s-7-63-9.54-94.72c-2.18-27.56-7.51-75.05-4.17-106.74"/><path class="cls-40" d="M824.56,387.7c7.88,49.26,4.43,68.47,3.94,104.92s3,85,3,85"/><line class="cls-40" x1="796.78" y1="569.95" x2="838.21" y2="569.36"/><path class="cls-40" d="M808.55,391c.7,13.13,18,11.23,18,11.23"/><path class="cls-40" d="M782.2,391.84c-1.37,27.09,3.13,68.1,3.13,68.1"/><path class="cls-40" d="M775.11,393.42c-.66,19.67,7,19.78,7,19.78"/><path class="cls-40" d="M766.45,393.59c-2.78,8-12.09,5.83-12.09,5.83"/><path class="cls-40" d="M784.06,445s-8,16-9.81,32,17.44,59.25,17.44,59.25"/><line class="cls-40" x1="764.03" y1="560.57" x2="794.15" y2="549.01"/><path class="cls-41" d="M781.44,253.56s-6.09,15.8-1.09,21.08c2.6,2.74,10.43,3.38,13.83.79,2.52-1.93,6.45-14.09,5.09-16.26C794.08,250.86,781.44,253.56,781.44,253.56Z"/><path class="cls-41" d="M800.26,269.75l1.17,16.53s-8.63,8.77-17.66-.93l1.29-10.79Z"/><path class="cls-38" d="M804.35,265.88c.66-3.39,2.37-5.23,2.15-9.15a4.64,4.64,0,0,0-3.72-4.61s-.43-2-3.82-3.52-15.3-4.37-20.75.31c-1.05.91-2.17,6.47,1.8,7.74,6.5,2.09,15.33-1.59,17,2.56a7.49,7.49,0,0,1,.2,4.16,12,12,0,0,0-.13,1.39l2,.9c2.53,1.06-1.54,5.93-.8,7.72.38.95,2.44,1,4-.17S803.63,269.56,804.35,265.88Z"/><path class="cls-41" d="M798,266.06c1.58-2.43,3.06-2.21,4-1,1.2,1.56-.58,5.21-1.51,5.89-1.88,1.38-3.51,1.4-3.81-.2"/><path class="cls-18" d="M801.47,286.09a17.4,17.4,0,0,1-9.68,2.69c-6,0-7.91-3.57-7.91-3.57s-23.79.63-35.7,12.05c-13,12.47-25.7,38.57-15.54,55.5s38.57-4.18,38.57-4.18"/><path class="cls-18" d="M775.89,289.91c-18.4-5.13-20.18,98.12-20.18,98.12,11.9,7.4,82.81,5,82.81,5s7-60.05-15-95.78c-4.28-7-22.07-11.17-22.07-11.17S788.79,293.51,775.89,289.91Z"/><path class="cls-42" d="M729.75,278l23.65-4.52,17.4,99.61s-1.77,4.75-9.16,6.16-11.74-2.17-11.74-2.17Z"/><path class="cls-43" d="M738.39,267.17s11.92-1.92,14.72,4.31-3.66,9.78-9.09,11.18-15.79.94-13.91-6.61c1.66-6.63,12.62-6.68,15.11-4.84s2.79,6.23-4.32,7.23-4.54-5-.87-5.28"/><path class="cls-44" d="M736.58,277.33s2.36,3,7.06.75,4.93-10.65-7-7.53-7.21,13.57,1.18,12.95Z"/><path class="cls-45" d="M740.6,279l-1.12-5.87s-3.6,1.36-3.32,3.52C736.51,279.26,740.6,279,740.6,279Z"/><path class="cls-46" d="M736.19,276.8l1.26,6.73a23.51,23.51,0,0,0,10.73-2.35l-1.46-7.66s.34,3.72-4.31,4.92S736.19,276.8,736.19,276.8Z"/><path class="cls-35" d="M759.48,285.49l17.23-.65,2.12,86.6s-1.74,3.78-7.13,4a10,10,0,0,1-8.1-3.42Z"/><path class="cls-43" d="M766.72,277.45s8.65,0,10,5.62-3.59,7.79-7.59,8.24-11.29-1.32-9.18-7.45c1.86-5.39,9.63-4,11.21-2.08s1.34,5.65-3.81,5.55-2.69-4.88-.07-4.59"/><path class="cls-44" d="M764.39,285.81s1.37,2.86,4.94,1.58,4.58-8.36-4.19-7.31-6.5,10.51-.49,11.11Z"/><path class="cls-45" d="M767.08,287.72l-.19-5.12s-2.69.67-2.71,2.53C764.15,287.43,767.08,287.72,767.08,287.72Z"/><path class="cls-46" d="M764.17,285.31l.21,5.85a14.07,14.07,0,0,0,7.84-.54L772,284a3.87,3.87,0,0,1-3.56,3.58C765,287.92,764.17,285.31,764.17,285.31Z"/><path class="cls-42" d="M794.13,286.56l20.76,6.76-28.18,81.92s-3.42,2.79-9.91.68-8.44-6.65-8.44-6.65Z"/><path class="cls-43" d="M805.6,282.14s10.32,3.67,9.92,9.53-7,5.75-12,4.46-13-6.06-8.3-10.9c4.12-4.25,12.89.41,14.09,2.85s-.4,5.86-6.5,3.56-1.48-5.71,1.54-4.32"/><path class="cls-44" d="M799.87,289s.61,3.26,5.32,3.59,8.42-5.86-2.41-8.63-11.47,7.06-4.52,10.18Z"/><path class="cls-45" d="M802.39,291.89,804,287s-3.45-.52-4.13,1.21C799,290.37,802.39,291.89,802.39,291.89Z"/><path class="cls-46" d="M799.78,288.4,798,294a22.43,22.43,0,0,0,9.54,2.84l2.07-6.34s-1.3,2.92-5.51,1.83S799.78,288.4,799.78,288.4Z"/><path class="cls-41" d="M775.34,326c2.25-1.8,11.39-8.93,11.84-8.29s-2.59,3.8-2.19,4c.56.25,3.31-1.66,4.75-2.87,1.28-1.08,3.52-2.6,4.06-2.11,1,.95-6.09,6.79-6.09,6.79.31.29,6.49-7.71,7.43-7,1.37,1-5.81,8.92-5.78,9.45,0,0,4.32-8.58,5.33-7.83s-2.66,8.5-4.48,10.29c1.22-1.74,3.31-8.47,4-7.93s-1.6,6-2.14,6.71a50.31,50.31,0,0,1-9.47,9.46"/><path class="cls-18" d="M735.31,331.47c15.66-.32,45.41-13.61,45.41-13.61l11.78,16.53s-26.78,23.69-50.32,24.76Z"/><path class="cls-47" d="M777.49,345.27l15-10.88-11.78-16.53s-22.05,10.29-42.4,13.38"/><path class="cls-41" d="M769.36,369.39c-2.87-.29-15.87-1.4-15.9-.62s4.23,1.8,4,2.16c-.34.52-3.68.39-5.55.15-1.67-.21-4.37-.29-4.56.42-.36,1.36,8.79,2.43,8.79,2.43-.11.41-9.62-3-10-1.89-.6,1.59,9.71,4.37,10,4.83,0,0-8.27-4.89-8.71-3.72s6.83,5.73,9.32,6.25c-2-.81-7.36-5.34-7.68-4.49s4.57,4.18,5.41,4.49a51,51,0,0,0,13.76,2.8"/><path class="cls-18" d="M813.66,384.84c13.43-7.88,26.41-29,27.86-50.35.94-14-8.41-31.94-20.42-39.93"/><path class="cls-18" d="M799.51,357.57a174.67,174.67,0,0,1-36.81,10.62l-3.13,24.6c10.06.8,36.91.94,55.49-8.64"/><path class="cls-47" d="M782.91,392.48s23.68-3.32,32.15-8.33c14.1-8.34,19.9-25,19.9-25"/><path class="cls-47" d="M762.7,368.19s25.89-4.4,38.77-11.65c10.2-5.74,12.19-34.19,12.19-34.19"/><path class="cls-18" d="M588.47,503.14a2.8,2.8,0,0,1-2.7-2.09l-10.26-38.93a2.81,2.81,0,0,1,2.7-3.51h49.48a2.81,2.81,0,0,1,2.71,2.08l10.26,38.94a2.78,2.78,0,0,1-.5,2.43,2.75,2.75,0,0,1-2.2,1.08Z"/><path class="cls-48" d="M638,501.14H588.48a.79.79,0,0,1-.77-.59l-10.26-38.94a.79.79,0,0,1,.76-1h49.48a.79.79,0,0,1,.77.59l10.26,38.94A.8.8,0,0,1,638,501.14Z"/><polygon class="cls-49" points="623.13 488.15 588.67 488.15 582.81 465.89 617.26 465.89 623.13 488.15"/><polygon class="cls-50" points="624.42 485.99 589.97 485.99 584.1 463.73 618.55 463.73 624.42 485.99"/><g class="cls-51"><g class="cls-52"><rect class="cls-53" x="583.02" y="467.36" width="44.66" height="1.57"/><rect class="cls-53" x="583.02" y="471.84" width="44.66" height="1.57"/><rect class="cls-53" x="583.02" y="476.31" width="44.66" height="1.57"/><rect class="cls-53" x="583.02" y="480.78" width="44.66" height="1.57"/></g></g><polygon class="cls-49" points="631.68 498.78 598.85 498.78 593.26 477.56 626.09 477.56 631.68 498.78"/><polygon class="cls-50" points="632.92 496.72 600.09 496.72 594.5 475.5 627.33 475.5 632.92 496.72"/><g class="cls-54"><rect class="cls-48" x="593.47" y="478.97" width="42.56" height="1.5"/><rect class="cls-48" x="593.47" y="483.23" width="42.56" height="1.5"/><rect class="cls-48" x="593.47" y="487.49" width="42.56" height="1.5"/><rect class="cls-48" x="593.47" y="491.76" width="42.56" height="1.5"/></g><rect class="cls-55" x="432.38" y="578.91" width="41.79" height="1.87" transform="translate(-76.28 1090.97) rotate(-95.97)"/><path class="cls-56" d="M471.12,593l-.48,3.69s-4.55,1.86-7.77,2.73a38.18,38.18,0,0,1-6.49,1.09L452,559s3.71.72,10.55,10a21.69,21.69,0,0,0,5.52,5.39Z"/><path class="cls-41" d="M500.93,594.59l-30.29,2.12s-2.29-1.53-3-8.59a54.25,54.25,0,0,1,.5-13.74l30.27-2"/><path class="cls-57" d="M680.08,601.06c-20.62.74-53.75.92-86.82.85-53.48-.11-106.8-.85-106.8-.85l-3.9-32s50.37-5.15,98.76-11.87c47.61-6.6,93.79,3.14,93.79,3.14"/><line class="cls-58" x1="485.01" y1="589.19" x2="648.48" y2="589.33"/><rect class="cls-55" x="465.84" y="582.33" width="41.79" height="1.87" transform="translate(300.66 1319.8) rotate(-125.98)"/><path class="cls-56" d="M508.77,585.76l1.43,3.43s-3,3.89-5.36,6.25a38.45,38.45,0,0,1-5.07,4.19l-24.56-33.82s3.58-1.25,14.16,3.4a21.87,21.87,0,0,0,7.47,1.91Z"/><path class="cls-41" d="M529.12,580.71l-18.92,8.48s-2.75-.18-6.92-5.92a54.46,54.46,0,0,1-6.44-12.15L527,557.19"/><path class="cls-59" d="M709,538.7s17.72,62.36-26.67,62.36-73.5-30.5-79.75-31.25-73.45,25.38-73.45,25.38L509.45,564.7s53.75-27.72,74.76-32,77.46,9.52,77.46,9.52"/><path class="cls-60" d="M688.84,543.35s5.52,31.38-5.54,40.16C667.59,596,611.44,558.8,602,558.8s-78.86,27.25-78.86,27.25"/><path class="cls-60" d="M670.46,542.62c-.23,14.93,19,14.81,19,14.81"/><line class="cls-60" x1="516.84" y1="562.24" x2="535.11" y2="592.77"/><path class="cls-61" d="M660.57,421.05c-2.38,7.83-2.35,15.06,4.29,17.07s16.34,1.4,19.76-9.77c2.41-7.83-1.07-15.83-7.72-17.84S663,413.21,660.57,421.05Z"/><path class="cls-61" d="M668.06,445.8a19.55,19.55,0,0,0,9.54,1.31c6.09-.79,7.28-3.12,7.28-3.12l-5-16.8-13.33,4Z"/><path class="cls-61" d="M662,421s-4.09,4.55-4,5.47,2.45,1.66,2.45,1.66"/><path class="cls-62" d="M661.28,416.55s0,0,0,0,0,0,0,0Z"/><path class="cls-62" d="M675.64,427.12A12.35,12.35,0,0,1,668.42,415a8,8,0,0,1-7.14,1.59c3.11-6,9.73-10.25,16.62-9a14,14,0,0,1,9.43,6c3.43,5.08,3.48,7.9,5.11,13.66.58,2,2.12,6.67,4.52,8.15-3.15,2.45-13.46,6.77-26.51,4a17.3,17.3,0,0,0,5.42-14.18"/><path class="cls-41" d="M673.67,425.13a2.46,2.46,0,0,1,3.57-.27c2.42,2.17-1,6.56-3,7.23s-2.51-1.55-2.51-1.55"/><path class="cls-41" d="M599.84,496c-2.61-1.25-14.45-6.7-14.75-6s3.37,3.13,3,3.39c-.5.38-3.6-.88-5.27-1.74-1.5-.76-4-1.75-4.44-1.15-.79,1.16,7.45,5.27,7.45,5.27-.24.34-8-6.08-8.8-5.18-1.11,1.29,7.65,7.4,7.74,7.92,0,0-6.12-7.41-6.94-6.45s4.48,7.7,6.66,9c-1.58-1.43-5.12-7.53-5.71-6.83s2.88,5.48,3.57,6.06a51.26,51.26,0,0,0,12,7.3"/><path class="cls-55" d="M670.13,491.94s-6.28,34.46-26,37.66c-24.08,3.9-58.25-16.87-58.25-16.87l9.59-19.18c22.53,6.24,36,6.43,39.6,3.17s7.41-24.21,17.14-38.11,15.73-13.52,15.73-13.52,2,2,8,1.8,9-2.9,9-2.9,9.46,2.21,19.2,19.93,7,78.7,7,78.7-35.06,7.11-70.22-5.32c0,0-1.24-57.4,7.21-70.08"/><path class="cls-63" d="M640.83,530c25.71-4.24,30.95-48.64,30.95-48.64"/><path class="cls-42" d="M227.51,475l22.63,19.11-70.82,79.78s-5.37,1.34-12.44-4.63S159.32,557,159.32,557Z"/><path class="cls-43" d="M243.46,476.18s11.11,9.86,8.14,16.37-11.06,2.76-16.55-1.41-13.39-14.07-5.6-17.06c6.85-2.63,15.64,7.51,16.09,11s-3,6.51-9.47.54.58-7.38,3.7-4.13"/><path class="cls-44" d="M233.54,480.89s-.62,4.08,5,7,12.8-2.13.68-11.23-17,1.84-9.84,9.23Z"/><path class="cls-45" d="M235.4,485.64l4-4.73s-4-2.49-5.58-.87C231.89,482,235.4,485.64,235.4,485.64Z"/><path class="cls-64" d="M233.67,480.19l-4.59,5.4a34,34,0,0,0,10.52,8.48l5.2-6.17s-2.82,2.65-7.53-.91S233.67,480.19,233.67,480.19Z"/><path class="cls-35" d="M60.68,506.56,88.56,486.1l59.35,84.69s.18,6.63-8.53,13-16.11,5.06-16.11,5.06Z"/><path class="cls-43" d="M66.12,488.43s14.24-9.91,21-4.51.37,13.67-5.85,18.78S61.59,514,60.12,504c-1.3-8.73,12.67-15.86,16.8-15.34s6.77,5.41-1.79,11.15-8.39-2.9-3.83-5.54"/><path class="cls-44" d="M69,501.35s4.56,2,9.41-3.69.8-15.5-12.82-4.19-2.22,20.33,8.17,14.2Z"/><path class="cls-45" d="M75,500.63l-4.45-6.07s-3.89,3.9-2.42,6.21C69.94,503.62,75,500.63,75,500.63Z"/><path class="cls-64" d="M68.26,501l5.07,7a38.22,38.22,0,0,0,12.49-9.64l-5.8-7.9s2.35,4.07-3,8.46S68.26,501,68.26,501Z"/><path class="cls-65" d="M114.31,493.58l3.26,14L112.48,513l-7.6-2.44-3.25-14a13.23,13.23,0,1,0,12.68-2.95Z"/><rect class="cls-65" x="112.79" y="516.14" width="13.02" height="55.56" transform="translate(-119.83 41.03) rotate(-13.06)"/><path class="cls-66" d="M124.67,567a13.24,13.24,0,1,0,15.88,9.9A13.24,13.24,0,0,0,124.67,567ZM135,582.17l-5.62,5.24-7.34-2.23-1.74-7.48,5.61-5.25,7.35,2.24Z"/><path class="cls-66" d="M119.59,596.08l4.28-15,7.64-2.42,5.9,6.3-4.29,15a14.32,14.32,0,1,0-13.53-3.88Z"/><rect class="cls-28" x="111.24" y="538.83" width="60.08" height="14.08" transform="translate(-422.39 531.47) rotate(-74.03)"/><path class="cls-28" d="M148.34,521.21a14.32,14.32,0,1,0-9.82-17.7A14.32,14.32,0,0,0,148.34,521.21Zm-1.83-19.74,8.06-2,5.77,6-2.29,8-8.05,2-5.77-6Z"/><path class="cls-35" d="M184.71,465l30.68,15.94L159,584.55s-6.22,3.79-15.81-1.2-11.31-12.89-11.31-12.89Z"/><path class="cls-43" d="M204.12,460.37s15.16,8.44,12.76,18-12.82,7.78-20.19,4.52-18.65-13-9.81-19.82c7.76-6,20.18,3.68,21.35,8s-2.4,9.52-11.31,4.32-.64-9.72,3.72-6.73"/><path class="cls-44" d="M193,470.23s0,5.49,7.3,7.13,15-7.64-1.19-14.72-20.2,8.9-10.19,15.65Z"/><path class="cls-45" d="M196.13,475.63l4-7.62s-5.27-1.66-6.86,1C191.24,472.34,196.13,475.63,196.13,475.63Z"/><path class="cls-64" d="M193.06,469.28,188.5,478a33.74,33.74,0,0,0,14.19,6.89l5.16-9.93s-2.91,4.49-9.23,1.71S193.06,469.28,193.06,469.28Z"/><rect class="cls-16" x="72.91" y="537.68" width="107.6" height="64.24"/><rect class="cls-67" x="179.44" y="537.68" width="58.89" height="64.24"/><polygon class="cls-68" points="156.41 568.68 49.31 568.68 72.34 537.68 179.43 537.68 156.41 568.68"/><polygon class="cls-69" points="192.57 568.68 251.76 568.68 238.32 537.68 179.14 537.69 192.57 568.68"/><line class="cls-70" x1="281.19" y1="601.92" x2="307.13" y2="374.53"/><line class="cls-70" x1="208.34" y1="601.92" x2="234.28" y2="374.53"/><line class="cls-70" x1="212.34" y1="569.71" x2="284.86" y2="569.71"/><line class="cls-70" x1="215.65" y1="541.86" x2="288.04" y2="541.86"/><line class="cls-70" x1="218.45" y1="513.25" x2="290.69" y2="513.25"/><line class="cls-70" x1="221.56" y1="485.98" x2="293.64" y2="485.98"/><line class="cls-70" x1="224.81" y1="457.5" x2="297.33" y2="457.5"/><line class="cls-70" x1="228.04" y1="429.27" x2="300.12" y2="429.27"/><line class="cls-70" x1="231.59" y1="402.61" x2="303.93" y2="402.61"/><line class="cls-70" x1="260.23" y1="601.92" x2="234.28" y2="374.53"/><line class="cls-70" x1="333.08" y1="601.92" x2="307.13" y2="374.53"/><line class="cls-70" x1="329.07" y1="569.71" x2="256.55" y2="569.71"/><line class="cls-70" x1="325.76" y1="541.86" x2="253.38" y2="541.86"/><line class="cls-70" x1="322.96" y1="513.25" x2="250.73" y2="513.25"/><line class="cls-70" x1="319.85" y1="485.98" x2="247.77" y2="485.98"/><line class="cls-70" x1="316.6" y1="457.5" x2="244.08" y2="457.5"/><line class="cls-70" x1="313.38" y1="429.27" x2="241.29" y2="429.27"/><line class="cls-70" x1="309.83" y1="402.61" x2="237.49" y2="402.61"/><rect class="cls-71" x="223.29" y="369.27" width="93.91" height="6.58"/><polygon class="cls-22" points="370.65 255.15 344.84 304.11 276.65 304.11 276.65 297.99 343.31 297.99 367.15 252.85 370.65 255.15"/><path class="cls-61" d="M281.81,203.43c.35,8.24-1.5,15.27-8.48,15.57s-16.28-2.75-16.81-14.49c-.37-8.24,5-15.16,12-15.46S281.46,195.19,281.81,203.43Z"/><path class="cls-61" d="M268.29,225.68a24.32,24.32,0,0,1-9.47-1.67c-5.74-2.3-6.48-4.32-6.48-4.32l9.1-15.12,12,7.22Z"/><path class="cls-61" d="M280.39,203s2.84,5.46,2.56,6.34-2.81,1-2.81,1"/><path class="cls-38" d="M264,204.13c1.08,2.09,4.14,3.52,5.34-.23s.73-4.8,2.62-5.19c2.38-.5,1.71,1.23,9.86,1.77,4.87.31,7.11-3.38,6.57-6a5.18,5.18,0,0,0-4.29-4.46c-4.34-.76-2.95.15-5.74-.74s-3.87-3.29-8.32-3.49a8.52,8.52,0,0,0-6.92,3.29s-3.59-1.64-6.47,2.33c-2.7,3.73-1.06,5.29-2.71,9.06-1.44,3.3-.41,8.92,1.25,10.56,4.37,4.34,8.75.18,8.75.18s-4.47-7.51-1.2-7.28"/><path class="cls-41" d="M265.66,204.45a2.48,2.48,0,0,0-3.41-1.16c-2.91,1.51-.72,6.63,1.06,7.79s2.83-.88,2.83-.88"/><rect class="cls-59" x="318.99" y="470.57" width="41.79" height="1.87" transform="translate(58.5 -37.08) rotate(6.83)"/><path class="cls-62" d="M327,453.48l-3.69.42s-1.93,4.52-2.85,7.73a38,38,0,0,0-1.19,6.47l41.5,5s-.66-3.73-9.87-10.71a21.69,21.69,0,0,1-5.3-5.6Z"/><path class="cls-41" d="M318,425.28l5.34,28.62s1.49,2.31,8.54,3.15a54.15,54.15,0,0,0,13.75-.29l-3.38-36.47"/><polyline class="cls-72" points="347.98 351.52 354.49 447.82 316.58 452.76 309.04 367.61"/><line class="cls-40" x1="316.26" y1="445.65" x2="352.65" y2="440.88"/><rect class="cls-59" x="276.2" y="453.59" width="41.79" height="1.87" transform="translate(218.05 -82.7) rotate(24.8)"/><path class="cls-62" d="M290.38,433.39l-3.64-.74s-3.23,3.71-5.09,6.47a38.87,38.87,0,0,0-3.13,5.79l37.94,17.53s.53-3.74-6.08-13.22a21.69,21.69,0,0,1-3.32-7Z"/><path class="cls-41" d="M292.32,422.4l-5.58,10.25s.71,2.66,7.15,5.64a54.07,54.07,0,0,0,13.17,4l11.4-17.5"/><path class="cls-22" d="M222.57,306.75s-11.69,62.52,18.79,62.52c23.82,0,51.48.39,62.43.56a3.52,3.52,0,0,1,3.27,4.65L289.7,425.57l37,16.17s30.14-67.87,26.8-93.3-88-28.77-88-28.77L256.76,303"/><path class="cls-40" d="M237.94,314.49s-6.28,34.3,9.67,39.37,53.76,5.69,65.07,8.25a8,8,0,0,1,6,9.68L298.1,429.27"/><path class="cls-40" d="M261.38,318.89c-1.49,11.34-24.44,15.61-24.44,15.61"/><line class="cls-40" x1="291.8" y1="419.41" x2="329.19" y2="435.92"/><path class="cls-41" d="M327.82,302.24c2.88-.19,15.9-.85,15.91-.07s-4.3,1.65-4.07,2c.32.53,3.66.53,5.54.35,1.67-.16,4.38-.14,4.54.58.31,1.37-8.87,2.12-8.87,2.12.09.41,9.72-2.66,10.1-1.54.54,1.61-9.85,4-10.13,4.48,0,0,8.43-4.6,8.83-3.41s-7,5.48-9.53,5.92c2-.75,7.54-5.09,7.83-4.22s-4.71,4-5.57,4.3a51,51,0,0,1-13.84,2.31"/><path class="cls-18" d="M270.82,247.74c0,27.67,4,37.38,13.67,43.29,9.92,6.06,32.09,8,45.59,9.12l-1.56,21.15s-51.58-1-64.79-8.22-15.22-46.82-15.22-46.82"/><path class="cls-18" d="M268.54,225.15c13.31,13,18.75,96.36,18.75,96.36-31.88,1.72-76.58,2.08-76.58,2.08s3.91-61.06,15.68-80a69.89,69.89,0,0,1,26.18-24.39,15.36,15.36,0,0,0,7.87,5.06,29.93,29.93,0,0,0,8.1.91"/><path class="cls-73" d="M286.71,292.18C271.57,286.31,272,254,272,254"/><path class="cls-73" d="M287.07,318.48s-22.38-.06-32.81-19.24-12-40.78-12-40.78"/></g></g></svg>