<svg width="173" height="46" viewBox="0 0 173 46" fill="none" xmlns="http://www.w3.org/2000/svg">
<path d="M39.8108 0H6.32739C2.83287 0 0 2.83119 0 6.32365V39.6764C0 43.1688 2.83287 46 6.32739 46H39.8108C43.3053 46 46.1382 43.1688 46.1382 39.6764V6.32365C46.1382 2.83119 43.3053 0 39.8108 0Z" fill="#197CFF"/>
<g filter="url(#filter0_d)">
<path d="M23 40C32.3888 40 40 32.3888 40 23C40 13.6112 32.3888 6 23 6C13.6112 6 6 13.6112 6 23C6 32.3888 13.6112 40 23 40Z" fill="white"/>
</g>
<path d="M31 28.2994L28.1898 30.7756C26.5733 32.1999 24.3809 33 22.0949 33C19.8089 33 17.6165 32.1999 16 30.7756L19.7369 27.4696C20.3595 28.0169 21.203 28.3243 22.0825 28.3243C22.9619 28.3243 23.8054 28.0169 24.428 27.4696L27.2282 25" fill="#197CFF"/>
<path d="M30.362 21.1885L28.2989 23.2504C28.1034 23.4458 28.1034 23.7626 28.2989 23.958L31.2851 26.9425C31.4806 27.1379 31.7976 27.1379 31.9931 26.9425L34.0562 24.8806C34.2517 24.6852 34.2517 24.3684 34.0562 24.173L31.07 21.1885C30.8745 20.9931 30.5575 20.9931 30.362 21.1885Z" fill="#197CFF"/>
<path d="M22.0473 12.8795L19.9841 14.9414C19.7886 15.1368 19.7886 15.4536 19.9841 15.649L22.9704 18.6335C23.1659 18.8289 23.4828 18.8289 23.6783 18.6335L25.7415 16.5715C25.937 16.3762 25.937 16.0594 25.7415 15.864L22.7552 12.8795C22.5597 12.6841 22.2428 12.6841 22.0473 12.8795Z" fill="#197CFF"/>
<path d="M17.3892 20.864L17.9422 17L17.1901 17.8406L12 23.8503L15.6178 24.3658L15.0906 28L21 21.3796L17.3892 20.864Z" fill="#197CFF"/>
<path d="M78.1976 25.043C76.3782 26.6773 74.0741 27.4945 71.2854 27.4945C68.4967 27.4945 66.1926 26.6773 64.3732 25.043C62.5538 23.4086 61.644 21.1176 61.644 18.17V2.63824H67.059V17.7235C67.059 19.1667 67.4308 20.2644 68.1745 21.0166C68.9182 21.7688 69.9533 22.1459 71.28 22.1477C72.6066 22.1477 73.6409 21.7706 74.3828 21.0166C75.1246 20.2626 75.4964 19.1649 75.4982 17.7235V2.63824H80.9132V18.17C80.9204 21.1194 80.0152 23.4104 78.1976 25.043Z" fill="#197CFF"/>
<path d="M90.1186 26.9479H84.663V2.63824H100.342V7.77942H90.0834V12.9206H99.1074V17.8588H90.1186V26.9479Z" fill="#197CFF"/>
<path d="M118.249 26.9479H102.817V2.63824H118.22V7.74695H108.232V12.374H117.288V17.1418H108.232V21.804H118.249V26.9479Z" fill="#197CFF"/>
<path d="M132.418 13.6106L127.341 13.5754C127.172 12.9738 127.102 12.3487 127.133 11.7246C127.116 10.7259 127.307 9.73465 127.693 8.81371C128.08 7.89278 128.655 7.06231 129.38 6.37507C130.88 4.9139 132.909 4.18241 135.469 4.1806C137.962 4.1806 139.963 4.88323 141.474 6.28848C142.201 6.94211 142.78 7.74418 143.17 8.64046C143.561 9.53674 143.754 10.5064 143.738 11.4838C143.738 14.3701 142.274 16.6791 139.346 18.4108L135.128 20.9111C134.373 21.3927 133.87 21.896 133.617 22.421H143.905V26.9479H126.997C126.997 24.7543 127.392 22.8512 128.18 21.2385C128.969 19.6258 130.323 18.2602 132.242 17.1418L135.88 15.015C136.611 14.6286 137.256 14.0984 137.776 13.4564C138.148 12.9053 138.337 12.2512 138.317 11.5866C138.328 11.2346 138.264 10.8843 138.131 10.5581C137.999 10.232 137.799 9.93715 137.546 9.69248C137.031 9.18919 136.294 8.93754 135.334 8.93754C134.326 8.93754 133.555 9.24601 133.019 9.86295C132.463 10.5239 132.173 11.3679 132.206 12.2306C132.205 12.6988 132.276 13.1643 132.418 13.6106Z" fill="#197CFF"/>
<path d="M146.618 26.2092C146.288 25.8859 146.027 25.4991 145.85 25.0723C145.673 24.6454 145.584 24.1872 145.589 23.7252C145.594 22.7988 145.965 21.9118 146.62 21.2567C147.276 20.6017 148.163 20.2314 149.09 20.2265C149.553 20.2212 150.011 20.3096 150.438 20.4863C150.865 20.663 151.252 20.9244 151.576 21.2547C151.912 21.5718 152.178 21.955 152.359 22.3802C152.539 22.8054 152.629 23.2634 152.623 23.7252C152.625 24.1859 152.532 24.6421 152.352 25.0662C152.172 25.4903 151.908 25.8736 151.576 26.1929C151.256 26.5275 150.872 26.7941 150.447 26.9767C150.021 27.1594 149.563 27.2543 149.1 27.2558C148.638 27.2573 148.179 27.1654 147.753 26.9856C147.326 26.8057 146.94 26.5416 146.618 26.2092Z" fill="#197CFF"/>
<path d="M153.961 15.8375C153.961 12.5688 154.613 9.95313 155.916 7.99047C157.585 5.45235 160.102 4.18329 163.464 4.18329C166.827 4.18329 169.354 5.45235 171.045 7.99047C172.35 9.95494 173.002 12.5706 173 15.8375C172.998 19.1044 172.347 21.7201 171.045 23.6846C169.33 26.2227 166.804 27.4909 163.464 27.4891C160.125 27.4872 157.609 26.2209 155.916 23.69C154.614 21.7237 153.963 19.1062 153.961 15.8375ZM159.376 15.8375C159.376 17.894 159.647 19.5058 160.188 20.6729C160.876 22.0439 161.959 22.7294 163.437 22.7294C164.915 22.7294 165.998 22.0439 166.686 20.6729C167.291 19.5311 167.593 17.9192 167.593 15.8375C167.593 13.7558 167.308 12.1449 166.738 11.0048C166.05 9.63203 164.967 8.94564 163.489 8.94564C162.01 8.94564 160.927 9.63203 160.24 11.0048C159.667 12.1683 159.381 13.7793 159.381 15.8375H159.376Z" fill="#197CFF"/>
<path d="M66.6582 42.3227C65.7695 42.3554 64.9027 42.042 64.2405 41.4487C63.6033 40.866 63.2847 40.0543 63.2847 39.0134V33.3311H64.9959V38.8835C64.9794 39.1201 65.01 39.3576 65.0857 39.5824C65.1614 39.8071 65.2809 40.0147 65.4372 40.1932C65.7799 40.4845 66.2151 40.6444 66.665 40.6444C67.1149 40.6444 67.5501 40.4845 67.8928 40.1932C68.0491 40.0147 68.1686 39.8071 68.2443 39.5824C68.3201 39.3576 68.3506 39.1201 68.3342 38.8835V33.3365H70.0453V39.0188C70.0453 40.0597 69.7267 40.8714 69.0896 41.4541C68.4222 42.0473 67.5506 42.3587 66.6582 42.3227Z" fill="#61707E"/>
<path d="M72.9477 44.482H71.2989V36.0261H72.899V36.7702C73.0755 36.4976 73.325 36.2801 73.6192 36.1425C73.978 35.9673 74.3734 35.8801 74.7726 35.8881C75.1604 35.8707 75.5472 35.9415 75.9036 36.0953C76.2601 36.249 76.5769 36.4817 76.8303 36.7756C77.3543 37.4195 77.624 38.2329 77.5884 39.0621C77.619 39.9064 77.3289 40.731 76.7761 41.3702C76.5189 41.6656 76.1991 41.8999 75.8398 42.0563C75.4806 42.2126 75.0911 42.287 74.6995 42.274C73.8872 42.274 73.3024 42.0278 72.9369 41.5299L72.9477 44.482ZM75.5388 40.3339C75.8163 39.9741 75.9668 39.5326 75.9668 39.0783C75.9668 38.6241 75.8163 38.1826 75.5388 37.8228C75.3978 37.6785 75.2294 37.5638 75.0434 37.4855C74.8574 37.4072 74.6576 37.3668 74.4558 37.3668C74.254 37.3668 74.0542 37.4072 73.8682 37.4855C73.6822 37.5638 73.5138 37.6785 73.3728 37.8228C73.0705 38.1649 72.914 38.6117 72.9369 39.0675C72.9158 39.5248 73.0719 39.9726 73.3728 40.3176C73.5128 40.4637 73.681 40.5799 73.8671 40.6592C74.0532 40.7386 74.2535 40.7795 74.4558 40.7795C74.6582 40.7795 74.8584 40.7386 75.0446 40.6592C75.2307 40.5799 75.3988 40.4637 75.5388 40.3176V40.3339Z" fill="#61707E"/>
<path d="M77.8861 40.4259L79.2994 40.1174C79.3052 40.2435 79.3362 40.3671 79.3907 40.4809C79.4451 40.5948 79.5217 40.6966 79.6162 40.7804C79.8413 40.9729 80.1328 41.07 80.4284 41.051C80.6415 41.0638 80.8522 41.0015 81.0241 40.8751C81.0903 40.8241 81.1439 40.7585 81.1805 40.6834C81.2172 40.6083 81.2359 40.5257 81.2353 40.4421C81.2353 40.1364 81.016 39.9388 80.5773 39.8468L79.7651 39.6601C79.2763 39.5816 78.8261 39.3472 78.4818 38.9918C78.1979 38.6758 78.0449 38.2637 78.054 37.8391C78.0518 37.57 78.1089 37.3037 78.2212 37.0592C78.3335 36.8146 78.4982 36.5977 78.7038 36.4239C79.1524 36.0321 79.7327 35.8242 80.3283 35.8421C80.6973 35.8358 81.0644 35.8972 81.4113 36.0234C81.6869 36.1177 81.937 36.2742 82.1423 36.4807C82.3027 36.6481 82.4369 36.8388 82.5403 37.0462C82.6262 37.2221 82.6847 37.4101 82.7136 37.6037L81.3354 37.9121C81.3018 37.6968 81.2003 37.4977 81.0457 37.3439C80.95 37.2557 80.8372 37.1881 80.7142 37.1452C80.5913 37.1024 80.4608 37.0853 80.331 37.095C80.1364 37.092 79.9462 37.1528 79.7895 37.2681C79.7193 37.3164 79.6619 37.3811 79.6222 37.4565C79.5826 37.5319 79.5619 37.6159 79.562 37.7011C79.562 37.9987 79.7462 38.1827 80.1198 38.2422L80.9889 38.429C81.4996 38.5117 81.9723 38.7498 82.3426 39.1108C82.6475 39.4315 82.8138 39.8592 82.8056 40.3014C82.8072 40.5672 82.7528 40.8302 82.646 41.0736C82.5392 41.3169 82.3823 41.5351 82.1856 41.7139C81.7046 42.1362 81.0755 42.3503 80.4366 42.3092C80.0436 42.3154 79.6528 42.2503 79.2832 42.1171C78.9859 42.0148 78.7163 41.8454 78.4953 41.6219C78.3243 41.4417 78.1818 41.2364 78.0729 41.0131C77.9804 40.8283 77.9174 40.6302 77.8861 40.4259Z" fill="#61707E"/>
<path d="M87.7224 39.9686L89.1006 40.3772C88.9377 40.9346 88.595 41.4227 88.1259 41.7653C87.6006 42.1409 86.9653 42.3313 86.32 42.3065C85.9072 42.3152 85.4969 42.2412 85.1132 42.0887C84.7296 41.9363 84.3804 41.7085 84.0863 41.4189C83.5 40.7806 83.1727 39.9468 83.1682 39.0803C83.1637 38.2139 83.4823 37.3768 84.0619 36.7323C84.6357 36.163 85.4085 35.839 86.217 35.8289C87.0254 35.8188 87.8061 36.1234 88.3939 36.6782C88.9354 37.2374 89.2061 38.0104 89.2061 38.9972C89.2061 39.0621 89.2061 39.1379 89.2061 39.2191C89.2061 39.3002 89.2061 39.3679 89.2061 39.4166L89.1926 39.5032H84.7848C84.7895 39.6924 84.8338 39.8786 84.9149 40.0497C84.9961 40.2207 85.1123 40.3729 85.2559 40.4962C85.5481 40.7594 85.9295 40.9016 86.3227 40.894C86.6261 40.9196 86.9294 40.8422 87.1834 40.6742C87.4374 40.5063 87.6273 40.2577 87.7224 39.9686ZM84.8309 38.3802H87.56C87.5511 38.0592 87.4204 37.7536 87.1945 37.5252C87.0597 37.4034 86.9018 37.31 86.7302 37.2505C86.5586 37.191 86.3767 37.1666 86.1954 37.1788C86.0176 37.1721 85.8403 37.2015 85.6741 37.2652C85.508 37.3289 85.3565 37.4256 85.2289 37.5495C84.991 37.7638 84.8446 38.0612 84.82 38.3802H84.8309Z" fill="#61707E"/>
<path d="M91.6429 42.1252H89.994V33.1497H91.6429V42.1252Z" fill="#61707E"/>
<path d="M94.5725 42.1252H92.9209V33.1497H94.5725V42.1252Z" fill="#61707E"/>
<path d="M100.277 42.1252H98.5524V33.3365H104.111V34.96H100.266V37.1247H103.697V38.6941H100.285L100.277 42.1252Z" fill="#61707E"/>
<path d="M108.429 42.1252C108.393 41.908 108.376 41.6879 108.381 41.4677C108.22 41.7429 107.973 41.9584 107.679 42.0819C107.368 42.2196 107.031 42.2896 106.691 42.2875C106.375 42.3035 106.059 42.25 105.766 42.1308C105.472 42.0116 105.209 41.8296 104.993 41.5975C104.575 41.1261 104.353 40.5121 104.373 39.882V36.0261H106.022V39.5438C106.009 39.8639 106.11 40.1784 106.307 40.4313C106.41 40.5474 106.539 40.6385 106.683 40.6975C106.827 40.7566 106.982 40.7821 107.138 40.7722C107.294 40.7799 107.45 40.7545 107.596 40.6976C107.741 40.6407 107.873 40.5536 107.983 40.4421C108.196 40.2025 108.307 39.8886 108.291 39.5681V36.0234H109.943V41.0212C109.941 41.3901 109.961 41.7588 110.005 42.1252H108.429Z" fill="#61707E"/>
<path d="M112.869 38.6184V42.136H111.221V36.0261H112.821V36.7811C112.994 36.4836 113.254 36.2459 113.565 36.0992C113.881 35.9437 114.229 35.8631 114.581 35.8638C114.888 35.8438 115.196 35.8944 115.481 36.0116C115.766 36.1289 116.02 36.3097 116.224 36.5402C116.616 37.0345 116.816 37.653 116.79 38.2828V42.1252H115.141V38.5669C115.159 38.2509 115.063 37.9389 114.87 37.6875C114.759 37.5788 114.626 37.4932 114.482 37.4356C114.337 37.378 114.182 37.3495 114.026 37.3517C113.87 37.354 113.716 37.387 113.573 37.4488C113.43 37.5106 113.3 37.6 113.192 37.7119C112.975 37.9633 112.86 38.2866 112.869 38.6184Z" fill="#61707E"/>
<path d="M119.63 38.6183V42.136H117.981V36.0261H119.581V36.781C119.755 36.4836 120.014 36.2459 120.326 36.0992C120.643 35.9434 120.991 35.8628 121.344 35.8638C121.651 35.8442 121.959 35.895 122.244 36.0122C122.529 36.1294 122.783 36.31 122.987 36.5402C123.378 37.0348 123.578 37.6533 123.551 38.2828V42.1252H121.902V38.5669C121.918 38.251 121.822 37.9394 121.631 37.6875C121.519 37.5787 121.387 37.4931 121.241 37.4354C121.096 37.3778 120.941 37.3492 120.785 37.3515C120.629 37.3538 120.475 37.3868 120.331 37.4486C120.188 37.5104 120.058 37.5999 119.95 37.7119C119.734 37.9637 119.62 38.287 119.63 38.6183Z" fill="#61707E"/>
<path d="M128.836 39.9686L130.214 40.3772C130.052 40.9352 129.709 41.4236 129.239 41.7653C128.714 42.1409 128.078 42.3313 127.433 42.3065C127.021 42.315 126.611 42.2408 126.228 42.0884C125.845 41.936 125.496 41.7083 125.202 41.4189C124.617 40.7803 124.29 39.947 124.285 39.0809C124.28 38.2147 124.597 37.3777 125.175 36.7323C125.749 36.163 126.522 35.839 127.33 35.8289C128.139 35.8188 128.919 36.1234 129.507 36.6782C130.049 37.2374 130.319 38.0104 130.319 38.9972C130.319 39.0621 130.319 39.1379 130.319 39.2191C130.319 39.3002 130.319 39.3679 130.319 39.4166V39.5032H125.898C125.903 39.6924 125.947 39.8786 126.028 40.0497C126.109 40.2207 126.225 40.3729 126.369 40.4962C126.661 40.7594 127.043 40.9016 127.436 40.894C127.74 40.9226 128.044 40.8464 128.299 40.678C128.554 40.5097 128.743 40.2593 128.836 39.9686ZM125.947 38.3802H128.676C128.665 38.0592 128.533 37.754 128.308 37.5252C128.173 37.4037 128.016 37.3105 127.845 37.251C127.673 37.1915 127.492 37.167 127.311 37.1788C127.133 37.1719 126.955 37.2011 126.789 37.2649C126.622 37.3286 126.47 37.4254 126.342 37.5495C126.11 37.7666 125.969 38.0634 125.947 38.3802Z" fill="#61707E"/>
<path d="M132.77 42.1252H131.118V33.1497H132.77V42.1252Z" fill="#61707E"/>
<path d="M142.259 42.1252H136.75V33.3365H142.259V34.96H138.469V36.9678H141.899V38.4939H138.463V40.5287H142.254L142.259 42.1252Z" fill="#61707E"/>
<path d="M144.937 38.6183V42.136H143.288V36.0261H144.888V36.781C145.062 36.4836 145.321 36.2459 145.633 36.0992C145.949 35.9434 146.298 35.8628 146.651 35.8638C146.958 35.8442 147.266 35.895 147.551 36.0122C147.836 36.1294 148.09 36.31 148.294 36.5402C148.685 37.0348 148.885 37.6533 148.857 38.2828V42.1252H147.209V38.5669C147.226 38.2509 147.13 37.9388 146.938 37.6875C146.826 37.5787 146.693 37.4931 146.548 37.4354C146.403 37.3778 146.248 37.3492 146.092 37.3515C145.936 37.3538 145.782 37.3868 145.638 37.4486C145.495 37.5104 145.365 37.5999 145.256 37.7119C145.043 37.9648 144.929 38.2873 144.937 38.6183Z" fill="#61707E"/>
<path d="M149.615 42.4607L151.105 42.0629C151.154 42.3884 151.322 42.6843 151.576 42.8936C151.844 43.1139 152.184 43.2284 152.531 43.2156C153.614 43.2156 154.156 42.6501 154.156 41.519V41.0726C153.995 41.3124 153.772 41.5048 153.512 41.63C153.182 41.787 152.82 41.8631 152.456 41.8519C152.078 41.8609 151.702 41.7907 151.353 41.6458C151.003 41.5008 150.688 41.2844 150.428 41.0103C150.158 40.7284 149.947 40.3956 149.808 40.0313C149.669 39.6671 149.603 39.2787 149.615 38.8889C149.599 38.1069 149.89 37.3497 150.428 36.7811C150.685 36.4996 150.999 36.2766 151.35 36.1272C151.701 35.9778 152.08 35.9055 152.461 35.9152C152.847 35.9008 153.231 35.9836 153.577 36.156C153.84 36.2838 154.057 36.4898 154.199 36.7459V36.0261H155.786V41.4676C155.814 42.3026 155.532 43.1183 154.993 43.7568C154.462 44.3629 153.66 44.666 152.586 44.666C151.859 44.6909 151.146 44.4633 150.569 44.022C150.057 43.6475 149.715 43.0863 149.615 42.4607ZM152.74 40.4394C152.933 40.446 153.125 40.4118 153.304 40.3391C153.482 40.2663 153.644 40.1567 153.777 40.0173C154.055 39.7093 154.2 39.3036 154.18 38.8889C154.19 38.6848 154.158 38.481 154.087 38.2895C154.015 38.0979 153.906 37.9227 153.766 37.7741C153.633 37.6369 153.474 37.5286 153.297 37.456C153.121 37.3833 152.931 37.3479 152.74 37.352C152.546 37.3466 152.352 37.3812 152.172 37.4539C151.992 37.5265 151.828 37.6355 151.692 37.7741C151.552 37.9227 151.443 38.0979 151.372 38.2895C151.301 38.481 151.269 38.6848 151.278 38.8889C151.268 39.0947 151.298 39.3005 151.369 39.4942C151.439 39.688 151.547 39.8658 151.687 40.0173C151.823 40.157 151.987 40.2666 152.169 40.3393C152.35 40.412 152.545 40.4461 152.74 40.4394Z" fill="#61707E"/>
<path d="M156.763 34.0292C156.761 33.8944 156.786 33.7606 156.837 33.636C156.889 33.5113 156.965 33.3983 157.061 33.304C157.153 33.2062 157.264 33.1288 157.388 33.0766C157.511 33.0244 157.644 32.9986 157.779 33.0009C157.913 32.9982 158.046 33.0232 158.17 33.0745C158.294 33.1257 158.406 33.202 158.499 33.2986C158.596 33.3936 158.672 33.5074 158.723 33.6331C158.775 33.7587 158.799 33.8935 158.797 34.0292C158.795 34.2294 158.734 34.4246 158.621 34.5902C158.509 34.7558 158.35 34.8845 158.164 34.96C157.979 35.0355 157.775 35.0545 157.579 35.0145C157.382 34.9745 157.202 34.8774 157.061 34.7354C156.965 34.6446 156.889 34.535 156.838 34.4134C156.787 34.2919 156.761 34.1611 156.763 34.0292ZM158.61 42.1252H156.961V36.0261H158.61V42.1252Z" fill="#61707E"/>
<path d="M161.55 38.6183V42.136H159.898V36.0261H161.499V36.7811C161.673 36.4843 161.932 36.2467 162.243 36.0992C162.56 35.9437 162.908 35.8632 163.261 35.8638C163.569 35.844 163.876 35.8947 164.161 36.0119C164.446 36.1291 164.7 36.3098 164.905 36.5402C165.296 37.0345 165.497 37.6529 165.47 38.2828V42.1252H163.819V38.5669C163.837 38.2509 163.741 37.9389 163.548 37.6875C163.436 37.5787 163.304 37.4931 163.159 37.4354C163.014 37.3778 162.859 37.3492 162.702 37.3515C162.546 37.3538 162.392 37.3868 162.249 37.4486C162.105 37.5104 161.976 37.5999 161.867 37.7119C161.654 37.9652 161.541 38.2876 161.55 38.6183Z" fill="#61707E"/>
<path d="M170.755 39.9686L172.131 40.3772C171.969 40.9352 171.626 41.4236 171.156 41.7653C170.632 42.1409 169.998 42.3313 169.353 42.3065C168.94 42.3152 168.53 42.2412 168.146 42.0887C167.763 41.9363 167.413 41.7085 167.119 41.4189C166.533 40.7806 166.206 39.9468 166.201 39.0803C166.197 38.2139 166.515 37.3768 167.095 36.7323C167.669 36.163 168.442 35.839 169.25 35.8289C170.058 35.8188 170.839 36.1234 171.427 36.6782C171.968 37.2374 172.239 38.0104 172.239 38.9972C172.239 39.0621 172.239 39.1379 172.239 39.2191C172.239 39.3002 172.239 39.3679 172.239 39.4166V39.5032H167.826C167.831 39.6924 167.875 39.8786 167.956 40.0497C168.037 40.2207 168.153 40.3729 168.297 40.4962C168.589 40.7594 168.971 40.9016 169.364 40.894C169.666 40.9177 169.967 40.8394 170.22 40.6716C170.472 40.5038 170.661 40.2563 170.755 39.9686ZM167.864 38.3802H170.593C170.584 38.0592 170.453 37.7536 170.227 37.5252C170.091 37.402 169.932 37.3078 169.758 37.2483C169.585 37.1887 169.401 37.1651 169.218 37.1788C169.04 37.1716 168.862 37.2008 168.696 37.2645C168.53 37.3282 168.378 37.4252 168.251 37.5495C168.021 37.7673 167.883 38.0643 167.864 38.3802Z" fill="#61707E"/>
<defs>
<filter id="filter0_d" x="-1" y="5" width="42" height="42" filterUnits="userSpaceOnUse" color-interpolation-filters="sRGB">
<feFlood flood-opacity="0" result="BackgroundImageFix"/>
<feColorMatrix in="SourceAlpha" type="matrix" values="0 0 0 0 0 0 0 0 0 0 0 0 0 0 0 0 0 0 127 0"/>
<feOffset dx="-3" dy="3"/>
<feGaussianBlur stdDeviation="2"/>
<feColorMatrix type="matrix" values="0 0 0 0 0 0 0 0 0 0 0 0 0 0 0 0 0 0 0.08 0"/>
<feBlend mode="normal" in2="BackgroundImageFix" result="effect1_dropShadow"/>
<feBlend mode="normal" in="SourceGraphic" in2="effect1_dropShadow" result="shape"/>
</filter>
</defs>
</svg>
